<mxfile host="Electron" agent="Mozilla/5.0 (Macintosh; Intel Mac OS X 10_15_7) AppleWebKit/537.36 (KHTML, like Gecko) draw.io/27.0.5 Chrome/134.0.6998.205 Electron/35.3.0 Safari/537.36" version="27.0.5">
  <diagram name="Page-1" id="bI-uw8CCWR50VLI2lu6x">
    <mxGraphModel dx="2109" dy="1117" grid="1" gridSize="10" guides="1" tooltips="1" connect="1" arrows="1" fold="1" page="1" pageScale="1" pageWidth="1600" pageHeight="900" math="0" shadow="0">
      <root>
        <mxCell id="0" />
        <mxCell id="1" parent="0" />
        <mxCell id="V8S6c6sAEREi9b41OBRZ-2" value="" style="shape=image;verticalLabelPosition=bottom;verticalAlign=top;imageAspect=0;aspect=fixed;image=data:image/svg+xml,PHN2ZyB4bWxucz0iaHR0cDovL3d3dy53My5vcmcvMjAwMC9zdmciIHZpZXdCb3g9IjAgMCA3MiA3MiI+PGRlZnM+PHN0eWxlPi5jbHMtMXtmaWxsOiM0NmM3OTU7fS5jbHMtMntmaWxsOiNmZmY7fS5jbHMtM3tmaWxsOiMwMjAyMDI7fTwvc3R5bGU+PC9kZWZzPjxnIGRhdGEtbmFtZT0iTGF5ZXIgMiIgaWQ9IkxheWVyXzIiPjxnIGRhdGEtbmFtZT0iTGF5ZXIgNSIgaWQ9IkxheWVyXzUiPjxjaXJjbGUgcj0iMzYiIGN5PSIzNiIgY3g9IjM2IiBjbGFzcz0iY2xzLTEiLz48cGF0aCBkPSJNNjEuMzcsMjguMkg1My45di04YTQuNSw0LjUsMCwxLDAtMi42LjA2VjI4LjJIMzcuMVYxMi45NGE0LjUsNC41LDAsMSwwLTIuNiwwVjI4LjJIMjAuNHYtOGE0LjUsNC41LDAsMSwwLTIuNiwwdjhoLTdhNC4zOSw0LjM5LDAsMCwwLTQuMzksNC4zOXY5LjIyYTQuMzksNC4zOSwwLDAsMCw0LjM5LDQuMzlIMTcuOHY1LjU2YTQuNSw0LjUsMCwxLDAsMi42LDBWNDYuMkgzNC41VjU5LjA2YTQuNSw0LjUsMCwxLDAsMi42LDBWNDYuMkg1MS4zdjUuNTNhNC41LDQuNSwwLDEsMCwyLjYuMDZWNDYuMmg3LjQ3YTQuMzgsNC4zOCwwLDAsMCw0LjM5LTQuMzlWMzIuNTlBNC4zOCw0LjM4LDAsMCwwLDYxLjM3LDI4LjJaIiBjbGFzcz0iY2xzLTIiLz48cGF0aCBkPSJNMTkuNywzOC44MmEyLjc4LDIuNzgsMCwwLDEtLjI3LDEuMjYsMi41NCwyLjU0LDAsMCwxLS43Mi45LDMuMTksMy4xOSwwLDAsMS0xLjA3LjU1LDQuNjEsNC42MSwwLDAsMS0xLjMxLjE4LDQsNCwwLDAsMS0uODctLjA4LDUuNCw1LjQsMCwwLDEtLjcyLS4xOCw0LjIxLDQuMjEsMCwwLDEtLjUxLS4yMywxLjQ4LDEuNDgsMCwwLDEtLjMtLjIxLjQ5LjQ5LDAsMCwxLS4xMy0uMjcsMi4wOCwyLjA4LDAsMCwxLDAtLjQ5YzAtLjE1LDAtLjI3LDAtLjM3YTEuMTEsMS4xMSwwLDAsMSwuMDUtLjI0LjMyLjMyLDAsMCwxLC4wOC0uMTMuMjguMjgsMCwwLDEsLjEzLDAsLjUzLjUzLDAsMCwxLC4yNy4xMWMuMTIuMDguMjguMTYuNDYuMjZhNC4wNyw0LjA3LDAsMCwwLC42OC4yNSwzLjA2LDMuMDYsMCwwLDAsLjkuMTIsMi4xOCwyLjE4LDAsMCwwLC42LS4wOCwxLjMzLDEuMzMsMCwwLDAsLjQ2LS4yMywxLDEsMCwwLDAsLjI4LS4zNiwxLjEzLDEuMTMsMCwwLDAsLjEtLjQ5Ljg2Ljg2LDAsMCwwLS4xNy0uNTMsMS41MiwxLjUyLDAsMCwwLS40NC0uMzksMy44OCwzLjg4LDAsMCwwLS42MS0uMzNsLS43MS0uMzJhNiw2LDAsMCwxLS43MS0uMzgsMy4wNywzLjA3LDAsMCwxLS42Mi0uNTEsMi42NiwyLjY2LDAsMCwxLS40NC0uNzEsMi42MSwyLjYxLDAsMCwxLS4xNy0xLDIuNSwyLjUsMCwwLDEsLjI1LTEuMTUsMi4zOSwyLjM5LDAsMCwxLC42NS0uODIsMi43NywyLjc3LDAsMCwxLDEtLjQ5QTQuMTcsNC4xNywwLDAsMSwxNywzMi4yOWE0LjYsNC42LDAsMCwxLC42NC4wNSw1LDUsMCwwLDEsLjYxLjEzLDQuNzcsNC43NywwLDAsMSwuNS4xOSwxLDEsMCwwLDEsLjI4LjE4LjM1LjM1LDAsMCwxLC4xLjEyLjMzLjMzLDAsMCwxLDAsLjEzczAsLjEyLDAsLjJ2LjMxYzAsLjEzLDAsLjI1LDAsLjM0YTEuMTcsMS4xNywwLDAsMSwwLC4yMy4zNy4zNywwLDAsMS0uMDcuMTQuMTcuMTcsMCwwLDEtLjEzLDAsLjUyLjUyLDAsMCwxLS4yNC0uMSw0LjA4LDQuMDgsMCwwLDAtLjQyLS4yMSwzLjExLDMuMTEsMCwwLDAtLjU3LS4yMSwyLjI2LDIuMjYsMCwwLDAtLjcxLS4xLDIsMiwwLDAsMC0uNTIuMDcsMS4wNywxLjA3LDAsMCwwLS4zOC4yMS42OC42OCwwLDAsMC0uMjIuMzEsMSwxLDAsMCwwLS4wOC4zOS44NS44NSwwLDAsMCwuMTcuNTIsMS41NiwxLjU2LDAsMCwwLC40NC40QTQuNjEsNC42MSwwLDAsMCwxNywzNmwuNzIuMzJhNi45NCw2Ljk0LDAsMCwxLC43MS4zOCwyLjY1LDIuNjUsMCwwLDEsLjYzLjUyLDIuMjUsMi4yNSwwLDAsMSwuNDQuN0EyLjUyLDIuNTIsMCwwLDEsMTkuNywzOC44MloiIGNsYXNzPSJjbHMtMyIvPjxwYXRoIGQ9Ik0yOS4zLDM2Ljg5YTcsNywwLDAsMS0uMjgsMiw0LjExLDQuMTEsMCwwLDEtLjg0LDEuNTEsMy40OSwzLjQ5LDAsMCwxLTEuMzcsMSw1LjA4LDUuMDgsMCwwLDEtMS45LjMzLDUuNDUsNS40NSwwLDAsMS0xLjg1LS4yOCwzLjEyLDMuMTIsMCwwLDEtMS4zMi0uODRBMy42MiwzLjYyLDAsMCwxLDIxLDM5LjE0YTcuMTQsNy4xNCwwLDAsMS0uMjctMi4wOCw2LjQ2LDYuNDYsMCwwLDEsLjI5LTIsMy45MSwzLjkxLDAsMCwxLC44My0xLjUsMy42NywzLjY3LDAsMCwxLDEuMzgtMSw1LDUsMCwwLDEsMS45LS4zMyw1LjU4LDUuNTgsMCwwLDEsMS44Mi4yNywzLjM1LDMuMzUsMCwwLDEsMS4zMy44NSwzLjc1LDMuNzUsMCwwLDEsLjgsMS40M0E3LDcsMCwwLDEsMjkuMywzNi44OVptLTEuOTQuMWE3LjMzLDcuMzMsMCwwLDAtLjExLTEuMywzLDMsMCwwLDAtLjM5LTEsMS43OCwxLjc4LDAsMCwwLS43Mi0uNjRBMi4zNSwyLjM1LDAsMCwwLDI1LDMzLjgxYTIuMjksMi4yOSwwLDAsMC0xLjE0LjI1LDIuMTMsMi4xMywwLDAsMC0uNzQuNjksMi44OCwyLjg4LDAsMCwwLS40LDFBNS45Miw1LjkyLDAsMCwwLDIyLjYzLDM3YTYuNzksNi43OSwwLDAsMCwuMTEsMS4zNCwyLjc0LDIuNzQsMCwwLDAsLjM4LDEsMS42OSwxLjY5LDAsMCwwLC43MS42NCwyLjU0LDIuNTQsMCwwLDAsMS4xNC4yMywyLjM0LDIuMzQsMCwwLDAsMS4xNC0uMjYsMiwyLDAsMCwwLC43My0uNjksMi45MywyLjkzLDAsMCwwLC40LTFBNi4xNCw2LjE0LDAsMCwwLDI3LjM2LDM3WiIgY2xhc3M9ImNscy0zIi8+PHBhdGggZD0iTTM1Ljg1LDQwLjc4YTEuODMsMS44MywwLDAsMSwwLC4zNSwxLjExLDEuMTEsMCwwLDEsMCwuMjQuMjguMjgsMCwwLDEtLjA5LjE0LjE2LjE2LDAsMCwxLS4xMiwwSDMxLjRhLjYuNiwwLDAsMS0uMzktLjE0LjU0LjU0LDAsMCwxLS4xNi0uNDRWMzIuN2EuMTguMTgsMCwwLDEsMC0uMTIuMjcuMjcsMCwwLDEsLjE1LS4wOS45LjksMCwwLDEsLjI4LS4wNmwuNDUsMCwuNDUsMGEuOS45LDAsMCwxLC4yOC4wNi4yNy4yNywwLDAsMSwuMTUuMDkuMTguMTgsMCwwLDEsLjA1LjEyVjQwaDIuODZhLjIxLjIxLDAsMCwxLC4xMiwwLC4yNS4yNSwwLDAsMSwuMDkuMTMsMSwxLDAsMCwxLDAsLjIzQTEuOTQsMS45NCwwLDAsMSwzNS44NSw0MC43OFoiIGNsYXNzPSJjbHMtMyIvPjxwYXRoIGQ9Ik00NC4zOSw0MC44NmExLjksMS45LDAsMCwxLC4xMS40LjIzLjIzLDAsMCwxLS4wNi4yMi40My40MywwLDAsMS0uMjcuMDksNCw0LDAsMCwxLS41NCwwaC0uNTZhMS44MiwxLjgyLDAsMCwxLS4zMSwwLC4yMS4yMSwwLDAsMS0uMTQtLjA5LjM1LjM1LDAsMCwxLS4wNy0uMTVsLS42Mi0xLjgySDM4LjUybC0uNTgsMS43N2EuNjcuNjcsMCwwLDEtLjA3LjE3LjI4LjI4LDAsMCwxLS4xNS4xLDEsMSwwLDAsMS0uMjkuMDZoLS40OWwtLjUxLDBhLjM5LjM5LDAsMCwxLS4yNS0uMS4yOS4yOSwwLDAsMSwwLS4yMywyLjQzLDIuNDMsMCwwLDEsLjExLS4zOUwzOSwzMi43N2EuNjcuNjcsMCwwLDEsLjEtLjE5LjMzLjMzLDAsMCwxLC4xOC0uMTEsMS4zNywxLjM3LDAsMCwxLC4zNCwwSDQwLjlhMS42NywxLjY3LDAsMCwxLC4zOCwwLC4zNS4zNSwwLDAsMSwuMi4xMS45LjksMCwwLDEsLjEuMjJabS00LjE3LTYuNjdoMGwtMS4yOSwzLjg2SDQxLjVaIiBjbGFzcz0iY2xzLTMiLz48cGF0aCBkPSJNNTEuNzksNDAuMTdhMi42MywyLjYzLDAsMCwxLDAsLjNxMCwuMTIsMCwuMjFhLjUyLjUyLDAsMCwxLS4wNi4xNS45Mi45MiwwLDAsMS0uMTEuMTUsMS4zNywxLjM3LDAsMCwxLS4zLjIsMy40NCwzLjQ0LDAsMCwxLS41NC4yNSw1LjQ5LDUuNDksMCwwLDEtLjczLjE5LDUsNSwwLDAsMS0uODkuMDgsNC43NSw0Ljc1LDAsMCwxLTEuNjktLjI5LDMuMzMsMy4zMywwLDAsMS0xLjI4LS44NiwzLjksMy45LDAsMCwxLS44MS0xLjQzLDYuNzEsNi43MSwwLDAsMS0uMjgtMiw2LjUxLDYuNTEsMCwwLDEsLjMxLTIuMDYsNC4zNyw0LjM3LDAsMCwxLC44Ny0xLjUxLDMuNTYsMy41NiwwLDAsMSwxLjMzLS45Myw0LjUzLDQuNTMsMCwwLDEsMS43MS0uMzIsMy40OCwzLjQ4LDAsMCwxLC43My4wNywzLjg2LDMuODYsMCwwLDEsLjY1LjE2LDMuMzcsMy4zNywwLDAsMSwuNTQuMjQsMS4yOSwxLjI5LDAsMCwxLC4zMy4yMy41Mi41MiwwLDAsMSwuMTMuMTUuNDMuNDMsMCwwLDEsLjA2LjE3LDEuMjksMS4yOSwwLDAsMSwwLC4yMywzLjIyLDMuMjIsMCwwLDEsMCwuMzNjMCwuMTQsMCwuMjYsMCwuMzZhMS4yNSwxLjI1LDAsMCwxLDAsLjI0LjMyLjMyLDAsMCwxLS4wOC4xMy4xNy4xNywwLDAsMS0uMTIsMCwuNDYuNDYsMCwwLDEtLjI2LS4xMmwtLjQyLS4yOGEzLjQ4LDMuNDgsMCwwLDAtLjYxLS4yNywyLjY4LDIuNjgsMCwwLDAtLjg1LS4xMiwyLjA3LDIuMDcsMCwwLDAtMSwuMjIsMi4xNiwyLjE2LDAsMCwwLS43Mi42MywzLjE4LDMuMTgsMCwwLDAtLjQ2LDFBNS4yNCw1LjI0LDAsMCwwLDQ3LjA2LDM3YTUuMTYsNS4xNiwwLDAsMCwuMTYsMS4zOSwyLjY3LDIuNjcsMCwwLDAsLjQ4LDEsMS44OSwxLjg5LDAsMCwwLC43My41NiwyLjM4LDIuMzgsMCwwLDAsMSwuMTksMi42OCwyLjY4LDAsMCwwLC44NS0uMTIsMy4yMSwzLjIxLDAsMCwwLC42MS0uMjVjLjE3LS4xLjMyLS4xOC40My0uMjZhLjU1LjU1LDAsMCwxLC4yNS0uMTEuMTYuMTYsMCwwLDEsLjExLDAsLjE4LjE4LDAsMCwxLC4wNy4xMSwxLjExLDEuMTEsMCwwLDEsLjA1LjI0QzUxLjc5LDM5Ljg3LDUxLjc5LDQwLDUxLjc5LDQwLjE3WiIgY2xhc3M9ImNscy0zIi8+PHBhdGggZD0iTTU4LjUxLDQwLjgyYzAsLjE0LDAsLjI1LDAsLjM1YTEsMSwwLDAsMS0uMDYuMjIuMjcuMjcsMCwwLDEtLjA5LjEyLjE1LjE1LDAsMCwxLS4xMSwwSDUzLjY3YS41Ni41NiwwLDAsMS0uMzktLjE0LjU0LjU0LDAsMCwxLS4xNi0uNDRWMzNhLjU0LjU0LDAsMCwxLC4xNi0uNDQuNTYuNTYsMCwwLDEsLjM5LS4xNGg0LjU0YS4xNS4xNSwwLDAsMSwuMTEsMHMuMDYuMDYuMDkuMTJhMSwxLDAsMCwxLC4wNS4yMiwzLjMyLDMuMzIsMCwwLDEsMCwuMzUsMy4yOCwzLjI4LDAsMCwxLDAsLjM0LDEsMSwwLDAsMS0uMDUuMjIuMzguMzgsMCwwLDEtLjA5LjEyLjE1LjE1LDAsMCwxLS4xMSwwSDU1djIuMjJoMi43NWEuMTkuMTksMCwwLDEsLjEyLDAsLjYyLjYyLDAsMCwxLC4wOS4xMi45LjksMCwwLDEsMCwuMjIsMi45MiwyLjkyLDAsMCwxLDAsLjMzLDMsMywwLDAsMSwwLC4zNC44MS44MSwwLDAsMSwwLC4yMS4zMS4zMSwwLDAsMS0uMDkuMTIuMjcuMjcsMCwwLDEtLjEyLDBINTVWNDAuMWgzLjI4YS4xNS4xNSwwLDAsMSwuMTEsMCwuMjcuMjcsMCwwLDEsLjA5LjEyLDEsMSwwLDAsMSwuMDYuMjJDNTguNTEsNDAuNTgsNTguNTEsNDAuNjksNTguNTEsNDAuODJaIiBjbGFzcz0iY2xzLTMiLz48L2c+PC9nPjwvc3ZnPg==;" parent="1" vertex="1">
          <mxGeometry x="600" y="350" width="72" height="72" as="geometry" />
        </mxCell>
        <mxCell id="kadNdFoKMBePwxR4Qxik-1" value="acmebank/customer/*/*" style="edgeStyle=orthogonalEdgeStyle;rounded=0;orthogonalLoop=1;jettySize=auto;html=1;verticalAlign=bottom;exitX=1;exitY=0.5;exitDx=0;exitDy=0;" edge="1" parent="1" source="kadNdFoKMBePwxR4Qxik-5" target="V8S6c6sAEREi9b41OBRZ-2">
          <mxGeometry relative="1" as="geometry" />
        </mxCell>
        <mxCell id="kadNdFoKMBePwxR4Qxik-3" value="acmebank/customer/*/*" style="edgeStyle=orthogonalEdgeStyle;rounded=0;orthogonalLoop=1;jettySize=auto;html=1;entryX=0;entryY=0.5;entryDx=0;entryDy=0;verticalAlign=bottom;" edge="1" parent="1" source="V8S6c6sAEREi9b41OBRZ-2" target="kadNdFoKMBePwxR4Qxik-2">
          <mxGeometry relative="1" as="geometry">
            <Array as="points">
              <mxPoint x="760" y="360" />
              <mxPoint x="760" y="256" />
            </Array>
          </mxGeometry>
        </mxCell>
        <mxCell id="kadNdFoKMBePwxR4Qxik-7" style="edgeStyle=orthogonalEdgeStyle;rounded=0;orthogonalLoop=1;jettySize=auto;html=1;entryX=0.5;entryY=1;entryDx=0;entryDy=0;" edge="1" parent="1" source="V8S6c6sAEREi9b41OBRZ-2" target="kadNdFoKMBePwxR4Qxik-6">
          <mxGeometry relative="1" as="geometry" />
        </mxCell>
        <mxCell id="kadNdFoKMBePwxR4Qxik-17" value="acmebank/insurance/claim/*/*" style="edgeStyle=orthogonalEdgeStyle;rounded=0;orthogonalLoop=1;jettySize=auto;html=1;entryX=0.5;entryY=0;entryDx=0;entryDy=0;" edge="1" parent="1" source="V8S6c6sAEREi9b41OBRZ-2" target="kadNdFoKMBePwxR4Qxik-15">
          <mxGeometry relative="1" as="geometry" />
        </mxCell>
        <mxCell id="kadNdFoKMBePwxR4Qxik-18" value="acmebank/*/*/payment/&amp;gt;" style="edgeStyle=orthogonalEdgeStyle;rounded=0;orthogonalLoop=1;jettySize=auto;html=1;entryX=0;entryY=0.5;entryDx=0;entryDy=0;verticalAlign=bottom;" edge="1" parent="1" source="V8S6c6sAEREi9b41OBRZ-2" target="kadNdFoKMBePwxR4Qxik-16">
          <mxGeometry relative="1" as="geometry">
            <Array as="points">
              <mxPoint x="810" y="386" />
              <mxPoint x="810" y="386" />
            </Array>
          </mxGeometry>
        </mxCell>
        <mxCell id="kadNdFoKMBePwxR4Qxik-35" style="edgeStyle=orthogonalEdgeStyle;rounded=0;orthogonalLoop=1;jettySize=auto;html=1;exitX=0.998;exitY=0.833;exitDx=0;exitDy=0;entryX=0;entryY=0.5;entryDx=0;entryDy=0;exitPerimeter=0;" edge="1" parent="1" source="V8S6c6sAEREi9b41OBRZ-2" target="kadNdFoKMBePwxR4Qxik-33">
          <mxGeometry relative="1" as="geometry">
            <Array as="points">
              <mxPoint x="760" y="410" />
              <mxPoint x="760" y="506" />
            </Array>
          </mxGeometry>
        </mxCell>
        <mxCell id="kadNdFoKMBePwxR4Qxik-2" value="" style="shape=image;editableCssRules=.*;verticalLabelPosition=bottom;verticalAlign=top;imageAspect=0;aspect=fixed;image=data:image/svg+xml,PHN2ZyB4bWxucz0iaHR0cDovL3d3dy53My5vcmcvMjAwMC9zdmciIHZpZXdCb3g9IjAgMCA3MiA3MiI+PGRlZnM+PHN0eWxlPi5jbHMtMXtmaWxsOiMzMzM7fS5jbHMtMntmaWxsOiNmZmY7fTwvc3R5bGU+PC9kZWZzPjxnIGRhdGEtbmFtZT0iTGF5ZXIgMiIgaWQ9IkxheWVyXzIiPjxnIGRhdGEtbmFtZT0iTGF5ZXIgNSIgaWQ9IkxheWVyXzUiPjxjaXJjbGUgcj0iMzYiIGN5PSIzNiIgY3g9IjM2IiBjbGFzcz0iY2xzLTEiLz48cGF0aCBkPSJNNTAuODcsMzkuM2wtLjEtLjFhNy4xMSw3LjExLDAsMCwwLTUuNS0uNyw3LjcxLDcuNzEsMCwwLDAtMy41LDIuMmwtMy40LTJhOS43NCw5Ljc0LDAsMCwwLC42LTMuNCw2LjY4LDYuNjgsMCwwLDAtLjYtM2wzLjQtMmE3LjA2LDcuMDYsMCwwLDAsOC41LDEuN2wuNS0uM2E3LjYzLDcuNjMsMCwwLDAsMy40LTQuNSw3LjQxLDcuNDEsMCwwLDAtLjctNS42LDcuMjMsNy4yMywwLDAsMC00LjQtMy41LDcuMTEsNy4xMSwwLDAsMC01LjUuN2gtLjFhNy42Myw3LjYzLDAsMCwwLTMuNCw0LjUsNi43Miw2LjcyLDAsMCwwLC4xLDQuMmwtMy40LDJjLS4yLS4yLS40LS41LS42LS43YTkuMDksOS4wOSwwLDAsMC01LjEtMi43di00YTcuMTYsNy4xNiwwLDAsMCwzLjYtMiw3LjQ5LDcuNDksMCwwLDAsMC0xMC40LDcuMjYsNy4yNiwwLDAsMC01LjItMi4yLDcuNSw3LjUsMCwwLDAtNS4yLDIuMiw3LjQ5LDcuNDksMCwwLDAsMCwxMC40LDYuNzcsNi43NywwLDAsMCwzLjYsMnY0YTkuNzUsOS43NSwwLDAsMC01LjEsMi43LDkuODksOS44OSwwLDAsMC0yLjcsNi43LDkuNDUsOS40NSwwLDAsMCwyLjcsNi43LDkuMDksOS4wOSwwLDAsMCw1LjEsMi43djRhNy4xNiw3LjE2LDAsMCwwLTMuNiwyLDcuNDksNy40OSwwLDAsMCwwLDEwLjQsNy4yNiw3LjI2LDAsMCwwLDUuMiwyLjIsNy41LDcuNSwwLDAsMCw1LjItMi4yLDcuNDksNy40OSwwLDAsMCwwLTEwLjQsNi43Nyw2Ljc3LDAsMCwwLTMuNi0ydi00YTkuNzUsOS43NSwwLDAsMCw1LjEtMi43Yy4yLS4yLjQtLjUuNi0uN2wzLjQsMmE3LjUxLDcuNTEsMCwwLDAtLjEsNC4yLDcuMjYsNy4yNiwwLDAsMCwzLjQsNC41LDcuMTEsNy4xMSwwLDAsMCw1LjUuNyw3LjQzLDcuNDMsMCwwLDAsNC40LTMuNGwuMS0uMWE3LjM1LDcuMzUsMCwwLDAsLjctNS42QTcuMiw3LjIsMCwwLDAsNTAuODcsMzkuM1ptLTctMTUuMWEzLjM2LDMuMzYsMCwwLDEsMS42LTIuMSwzLjk0LDMuOTQsMCwwLDEsMi42LS4zLDMuODksMy44OSwwLDAsMSwyLDEuNiwzLjg3LDMuODcsMCwwLDEsLjMsMi42LDMuMjIsMy4yMiwwLDAsMS0xLjUsMi4xLDMuOTQsMy45NCwwLDAsMS0yLjYuMywzLjQ1LDMuNDUsMCwwLDEtMi0xLjZBMy41MiwzLjUyLDAsMCwxLDQzLjg3LDI0LjJabS0xNi42LTdhMy4zMSwzLjMxLDAsMCwxLTEtMi40LDMuMzksMy4zOSwwLDAsMSw1LjgtMi40LDMuMzEsMy4zMSwwLDAsMSwxLDIuNCwzLjQxLDMuNDEsMCwwLDEtMy40LDMuNEEzLjMxLDMuMzEsMCwwLDEsMjcuMjcsMTcuMlptNC44LDM2LjNhMy4zMSwzLjMxLDAsMCwxLDEsMi40LDMuNDEsMy40MSwwLDAsMS0zLjQsMy40LDMuMzEsMy4zMSwwLDAsMS0yLjQtMSwzLjM4LDMuMzgsMCwwLDEsMC00LjgsMy4zMSwzLjMxLDAsMCwxLDIuNC0xQTMuNDksMy40OSwwLDAsMSwzMi4wNyw1My41Wm0xLjEtMTQuN2E0LjgzLDQuODMsMCwwLDEtNywwLDUuMDcsNS4wNywwLDAsMSwwLTcsNC45MSw0LjkxLDAsMCwxLDMuNS0xLjUsNS4yOSw1LjI5LDAsMCwxLDMuNSwxLjUsNC44Myw0LjgzLDAsMCwxLDEuNCwzLjVBNSw1LDAsMCwxLDMzLjE3LDM4LjhabTE3LjEsOC41LS4xLjFhMy42NCwzLjY0LDAsMCwxLTIuMSwxLjYsMy4wNiwzLjA2LDAsMCwxLTQtMi40LDMsMywwLDAsMSwuMy0yLjZBMy40MywzLjQzLDAsMCwxLDQ5LDQyLjdhMy4zNiwzLjM2LDAsMCwxLDEuNiwyLjFBMy42NiwzLjY2LDAsMCwxLDUwLjI3LDQ3LjNaIiBjbGFzcz0iY2xzLTIiLz48L2c+PC9nPjwvc3ZnPg==" vertex="1" parent="1">
          <mxGeometry x="960" y="220" width="72" height="72" as="geometry" />
        </mxCell>
        <mxCell id="kadNdFoKMBePwxR4Qxik-4" value="" style="shape=image;editableCssRules=.*;verticalLabelPosition=bottom;verticalAlign=top;imageAspect=0;aspect=fixed;image=data:image/svg+xml,PHN2ZyB4bWxucz0iaHR0cDovL3d3dy53My5vcmcvMjAwMC9zdmciIHZpZXdCb3g9IjAgMCA3MiA3MiI+PGRlZnM+PHN0eWxlPi5jbHMtMXtmaWxsOiMzMzM7fS5jbHMtMntmaWxsOiNmZmY7fTwvc3R5bGU+PC9kZWZzPjxnIGRhdGEtbmFtZT0iTGF5ZXIgMiIgaWQ9IkxheWVyXzIiPjxnIGRhdGEtbmFtZT0iTGF5ZXIgNSIgaWQ9IkxheWVyXzUiPjxjaXJjbGUgcj0iMzYiIGN5PSIzNiIgY3g9IjM2IiBjbGFzcz0iY2xzLTEiLz48cGF0aCBkPSJNMzEuMDUsMzkuMzNhMi41MSwyLjUxLDAsMCwwLC40LjcuODQuODQsMCwwLDAsLjcuMmwxLjgtLjFhMS4wOCwxLjA4LDAsMCwwLC44LS4yYy4yLS4zLjQtLjUuNC0uOGwyLjktMTIuMkw0MSwzOS4xM2EyLDIsMCwwLDAsLjQuOCwxLjIsMS4yLDAsMCwwLC44LjJoMS42YTEuODUsMS44NSwwLDAsMCwuNy0uMiwxLjYxLDEuNjEsMCwwLDAsLjQtLjdsNC42LTE0LjZjMC0uMi4xLS4zLjEtLjV2LS40YS41NS41NSwwLDAsMC0uNS0uM2gtMS44YTEuODUsMS44NSwwLDAsMC0uNy4yLDEuNjEsMS42MSwwLDAsMC0uNC43TDQyLjg1LDM3bC0zLTEyLjdjLS4xLS4zLS4yLS42LS40LS43YTEuMiwxLjIsMCwwLDAtLjgtLjJoLTEuNWExLjg4LDEuODgsMCwwLDAtLjguMmMtLjIuMS0uMy4zLS40LjdsLTIuOSwxMi41LTMuMi0xMi41YTIuNTEsMi41MSwwLDAsMC0uNC0uNy44NC44NCwwLDAsMC0uNy0uMmgtMmEuNTUuNTUsMCwwLDAtLjMuNWMuMS4zLjEuNi4yLjhaIiBjbGFzcz0iY2xzLTIiLz48cGF0aCBkPSJNMTkuMDUsMzAuNDNjLS43LDAtMS4zLS4xLTItLjFhNi43LDYuNywwLDAsMC00LjYsMS41LDUuMDcsNS4wNywwLDAsMC0xLjcsMy45LDQuOSw0LjksMCwwLDAsMS40LDMuNiw1LjM4LDUuMzgsMCwwLDAsMy44LDEuNCw3LjEyLDcuMTIsMCwwLDAsNS42LTIuNiwxMC45MSwxMC45MSwwLDAsMCwuNiwxLjEsNS41LDUuNSwwLDAsMCwuNy45Ljg2Ljg2LDAsMCwwLC42LjMuNzYuNzYsMCwwLDAsLjUtLjJsMS4yLS44Yy4yLS4yLjQtLjQuNC0uNmEuNi42LDAsMCwwLS4xLS40Yy0uMi0uNS0uNC0uOS0uNi0xLjRhOS44NSw5Ljg1LDAsMCwxLS4yLTEuN2wtLjQtNi40YTYuNCw2LjQsMCwwLDAtMS42LTQuNmMtMS0xLTIuNy0xLjUtNC45LTEuNWExNC40NiwxNC40NiwwLDAsMC0yLjkuNCwxMS43MiwxMS43MiwwLDAsMC0yLjQuOSwxLDEsMCwwLDAtLjUuNCwxLjcsMS43LDAsMCwwLS4xLjd2LjljMCwuNC4xLjYuNC42YS4zNy4zNywwLDAsMSwuMy0uMSwxLjQ1LDEuNDUsMCwwLDAsLjctLjJjLjYtLjIsMS4zLS40LDItLjZhMTIuMzEsMTIuMzEsMCwwLDEsMi0uMiw0LjI1LDQuMjUsMCwwLDEsMy4xLjksNC4xNCw0LjE0LDAsMCwxLC45LDN2MS4zQTIwLjY5LDIwLjY5LDAsMCwwLDE5LjA1LDMwLjQzWm0yLjYsMi43di44YTguNzUsOC43NSwwLDAsMS0uMiwxLjYsMi43MywyLjczLDAsMCwxLS42LDEuMiw0LjM5LDQuMzksMCwwLDEtMS44LDEuMiw2LjkzLDYuOTMsMCwwLDEtMiwuM2MtLjksMC0xLjQsMC0xLjktLjVhMi41OCwyLjU4LDAsMCwxLS43LTIsMi42NiwyLjY2LDAsMCwxLC45LTIuMiw0LjI1LDQuMjUsMCwwLDEsMi44LS44LDEwLjg3LDEwLjg3LDAsMCwxLDEuOC4xQzIwLjQ1LDMyLjkzLDIxLjA1LDMzLDIxLjY1LDMzLjEzWiIgY2xhc3M9ImNscy0yIi8+PHBhdGggZD0iTTYyLjY1LDMyLjgzYTUuMTksNS4xOSwwLDAsMC0yLjktMS44bC0yLjctLjlhNS4xMSw1LjExLDAsMCwxLTIuMS0xLDEuNjEsMS42MSwwLDAsMS0uNi0xLjMsMS44NSwxLjg1LDAsMCwxLC45LTEuNyw1LjUxLDUuNTEsMCwwLDEsMi41LS41LDguODksOC44OSwwLDAsMSwzLjYuNywxLjQ1LDEuNDUsMCwwLDAsLjcuMmMuMywwLC40LS4yLjQtLjZWMjVhMS40MiwxLjQyLDAsMCwwLS4yLS42LDIuNjUsMi42NSwwLDAsMC0uNi0uNWMtLjMtLjEtLjUtLjItLjgtLjNsLTEuMS0uM2MtLjQtLjEtLjgtLjEtMS4yLS4yYTUuNyw1LjcsMCwwLDAtMS4zLS4xLDkuODYsOS44NiwwLDAsMC0yLjQuMyw3LjUsNy41LDAsMCwwLTIsMSw1LjIxLDUuMjEsMCwwLDAtMS40LDEuNkE1LDUsMCwwLDAsNTEsMjhhNC42LDQuNiwwLDAsMCwuOSwyLjcsNS41OCw1LjU4LDAsMCwwLDMsMS45bDIuNy45YTQuMTMsNC4xMywwLDAsMSwxLjksMSwxLjksMS45LDAsMCwxLC41LDEuMywyLjIzLDIuMjMsMCwwLDEtMSwxLjgsNS41NSw1LjU1LDAsMCwxLTIuOC42QTguMiw4LjIsMCwwLDEsNTQsMzhhMTcuMjMsMTcuMjMsMCwwLDEtMi4xLS43LDEuNjksMS42OSwwLDAsMC0uNS0uMi4zNy4zNywwLDAsMC0uMy0uMWMtLjMsMC0uNC4yLS40LjZ2LjlhMS4yMywxLjIzLDAsMCwwLC43LDEuMSw4LjI2LDguMjYsMCwwLDAsMi4yLjgsMTMuNTgsMTMuNTgsMCwwLDAsMi45LjMsMjAsMjAsMCwwLDAsMy4xLS4zLDcsNywwLDAsMCwyLjEtMS4xLDQuNTcsNC41NywwLDAsMCwxLjQtMS43LDUuNDUsNS40NSwwLDAsMCwuNS0yLjJBNC4zMiw0LjMyLDAsMCwwLDYyLjY1LDMyLjgzWiIgY2xhc3M9ImNscy0yIi8+PHBhdGggZD0iTTU5LjE1LDQ4LjUzYTU0Ljc2LDU0Ljc2LDAsMCwxLTIxLjUsNC40LDU2LjEyLDU2LjEyLDAsMCwxLTI4LjEtNy41Yy0uNy0uNC0xLjIuMy0uNi44YTQxLjUzLDQxLjUzLDAsMCwwLDI4LjEsMTAuN2M3LjgsMCwxNi44LTIuNCwyMy03QzYxLjA1LDQ5LjEzLDYwLjE1LDQ4LDU5LjE1LDQ4LjUzWiIgY2xhc3M9ImNscy0yIi8+PC9nPjwvZz48L3N2Zz4=" vertex="1" parent="1">
          <mxGeometry x="830" y="70.00000000000023" width="72" height="72" as="geometry" />
        </mxCell>
        <mxCell id="kadNdFoKMBePwxR4Qxik-5" value="CDC" style="shape=image;verticalLabelPosition=bottom;labelBackgroundColor=default;verticalAlign=top;aspect=fixed;imageAspect=0;image=data:image/svg+xml,PHN2ZyB4bWxucz0iaHR0cDovL3d3dy53My5vcmcvMjAwMC9zdmciIHZpZXdCb3g9IjAgMCA3MiA3MiI+PGRlZnM+PHN0eWxlPi5jbHMtMXtmaWxsOiM0NmM3OTU7fS5jbHMtMntmaWxsOiNmZmY7fS5jbHMtM3tmaWxsOiMzMzM7fTwvc3R5bGU+PC9kZWZzPjxnIGRhdGEtbmFtZT0iTGF5ZXIgMiIgaWQ9IkxheWVyXzIiPjxnIGRhdGEtbmFtZT0iTGF5ZXIgNSIgaWQ9IkxheWVyXzUiPjxwYXRoIGQ9Ik00MS43NC40OEEzNiwzNiwwLDEsMCw3MS41Miw0MS43NCwzNS45NSwzNS45NSwwLDAsMCw0MS43NC40OFoiIGNsYXNzPSJjbHMtMSIvPjxwYXRoIGQ9Ik0yOC40OSwxMC4wOEgyMGEuNTQuNTQsMCwwLDAtLjU0LjU0djUuMzFIOS4yYTMzLjUsMzMuNSwwLDAsMC0yLjM0LDMuODFIMTkuNDd2NS4zMWEuNTQuNTQsMCwwLDAsLjU0LjU0aDguNDhhLjU0LjU0LDAsMCwwLC41My0uNTRWMTAuNjJBLjU0LjU0LDAsMCwwLDI4LjQ5LDEwLjA4WiIgY2xhc3M9ImNscy0yIi8+PHJlY3QgaGVpZ2h0PSIwLjAxIiB3aWR0aD0iNi4xMyIgeT0iMjMuMjgiIHg9IjM1LjY3IiBjbGFzcz0iY2xzLTMiLz48cGF0aCBkPSJNNTYuMjIsMTUuOTNWMTMuMjZhLjUzLjUzLDAsMCwwLS4zOS0uNTFMNDcsMTAuMWwtLjE1LDBINDIuMzRhLjU0LjU0LDAsMCwwLS41NC41NHYuNjlIMzUuMTRhLjU0LjU0LDAsMCwwLS41NC41NHYxMmEuNTQuNTQsMCwwLDAsLjU0LjU0SDQxLjh2LjY5YS41NC41NCwwLDAsMCwuNTQuNTRINDYuOGwuMTUsMCw4Ljg4LTIuNjVhLjU0LjU0LDAsMCwwLC4zOS0uNTFWMTkuNzRoOWEzMS42MywzMS42MywwLDAsMC0yLjM0LTMuODFabS0xNCw3LjM1SDM1LjY3VjEyLjM4SDQyLjJaIiBjbGFzcz0iY2xzLTIiLz48L2c+PC9nPjwvc3ZnPg==;" vertex="1" parent="1">
          <mxGeometry x="360" y="350" width="72" height="72" as="geometry" />
        </mxCell>
        <mxCell id="kadNdFoKMBePwxR4Qxik-8" value="acmebank/&amp;gt;" style="edgeStyle=orthogonalEdgeStyle;rounded=0;orthogonalLoop=1;jettySize=auto;html=1;exitX=1;exitY=0.5;exitDx=0;exitDy=0;verticalAlign=top;" edge="1" parent="1" source="kadNdFoKMBePwxR4Qxik-6" target="kadNdFoKMBePwxR4Qxik-4">
          <mxGeometry relative="1" as="geometry" />
        </mxCell>
        <mxCell id="kadNdFoKMBePwxR4Qxik-6" value="" style="shape=image;verticalLabelPosition=bottom;verticalAlign=top;imageAspect=0;aspect=fixed;image=data:image/svg+xml,PHN2ZyB4bWxucz0iaHR0cDovL3d3dy53My5vcmcvMjAwMC9zdmciIHZpZXdCb3g9IjAgMCA3Ni4zNyA1Ni4wNCI+PGRlZnM+PHN0eWxlPi5jbHMtMXtmaWxsOiM0NmM3OTU7fS5jbHMtMntmaWxsOiNmZmY7fTwvc3R5bGU+PC9kZWZzPjxnIGRhdGEtbmFtZT0iTGF5ZXIgMiIgaWQ9IkxheWVyXzIiPjxnIGRhdGEtbmFtZT0iTGF5ZXIgNSIgaWQ9IkxheWVyXzUiPjxwYXRoIGQ9Ik0xNC40MSw1NmwtMy4yMS0xQTE2LjM5LDE2LjM5LDAsMCwxLDAsMzkuMzRDMCwzMiw0LjQ3LDI1LjI0LDEwLjY5LDIzLjE4Yy41MS01LjIyLDIuOTEtOS41Nyw2LjYyLTEyYTEyLjczLDEyLjczLDAsMCwxLDctMi4wNiwxMy4xLDEzLjEsMCwwLDEsNC4yNC43MUExOS40MiwxOS40MiwwLDAsMSw0NS4xNywwQzU2Ljc0LDAsNjQuMjgsMTAuMTIsNjUsMjAuMDVhMTcuOTMsMTcuOTMsMCwwLDEsMTAsMTAuMzcsMjAuOSwyMC45LDAsMCwxLS44MiwxNi4yOEExNS43MiwxNS43MiwwLDAsMSw2MC4xOSw1NkgxNC40MVoiIGNsYXNzPSJjbHMtMSIvPjxwYXRoIGQ9Ik01OS43NywyMi41OWgtNy43VjE5LjI0YTMuMjcsMy4yNywwLDEsMC0xLjkyLDB2My4zNkgzOS45NFYxMy45MmEzLjI4LDMuMjgsMCwxLDAtMS44OSwwdjguNjNIMjcuN1YxOS4yNmEzLjI5LDMuMjksMCwxLDAtMS44NSwwdjMuMzVoLTcuN0E0LjM5LDQuMzksMCwwLDAsMTMuNzYsMjd2Ny40M2E0LjM4LDQuMzgsMCwwLDAsNC4zOSw0LjM4aDcuN3YzLjM2YTMuMjUsMy4yNSwwLDEsMCwxLjg1LDBWMzguNzlIMzguMDV2OC42NGEzLjI2LDMuMjYsMCwxLDAsMS44OSwwVjM4Ljc5SDUwLjE1djMuMzZhMy4yNCwzLjI0LDAsMCwwLTIuMzMsMy4xMSwzLjI3LDMuMjcsMCwxLDAsNC4yNS0zLjFWMzguNzloNy43YTQuMzksNC4zOSwwLDAsMCw0LjM5LTQuMzhWMjdBNC40LDQuNCwwLDAsMCw1OS43NywyMi41OVoiIGNsYXNzPSJjbHMtMiIvPjxwYXRoIGQ9Ik0yNS4yMSwzNGMwLC4xMiwwLC4yMiwwLC4yOXMwLC4xNSwwLC4yMWwtLjA2LjE1YS45Mi45MiwwLDAsMS0uMTEuMTQsMS4yNCwxLjI0LDAsMCwxLS4yOS4yLDMuMjIsMy4yMiwwLDAsMS0uNTIuMjMsNC4xNyw0LjE3LDAsMCwxLS43Mi4xOSw0LjU3LDQuNTcsMCwwLDEtLjg2LjA4QTQuNyw0LjcsMCwwLDEsMjEsMzUuMmEzLjM3LDMuMzcsMCwwLDEtMS4yNS0uODRBMy43NiwzLjc2LDAsMCwxLDE4Ljk0LDMzLDYuMzEsNi4zMSwwLDAsMSwxOC42NywzMWE2LjI1LDYuMjUsMCwwLDEsLjMtMiw0LjIyLDQuMjIsMCwwLDEsLjg0LTEuNDcsMy42NiwzLjY2LDAsMCwxLDEuMjktLjksNC41MSw0LjUxLDAsMCwxLDEuNjctLjMxLDQuMTcsNC4xNywwLDAsMSwuNzEuMDcsMy42MiwzLjYyLDAsMCwxLC42My4xNiwyLjQ4LDIuNDgsMCwwLDEsLjUyLjIzQTEuMzIsMS4zMiwwLDAsMSwyNSwyN2EuNjQuNjQsMCwwLDEsLjEyLjE1LjM4LjM4LDAsMCwxLC4wNi4xNmMwLC4wNiwwLC4xNCwwLC4yMmEzLjIyLDMuMjIsMCwwLDEsMCwuMzNjMCwuMTMsMCwuMjUsMCwuMzRhMS4xMSwxLjExLDAsMCwxLS4wNS4yNC4zMi4zMiwwLDAsMS0uMDguMTMuMjUuMjUsMCwwLDEtLjExLDAsLjQ2LjQ2LDAsMCwxLS4yNi0uMTIsNC44OSw0Ljg5LDAsMCwwLS40MS0uMjcsMi42OSwyLjY5LDAsMCwwLS41OS0uMjYsMi41NSwyLjU1LDAsMCwwLS44My0uMTIsMi4wNiwyLjA2LDAsMCwwLS45NC4yMSwyLDIsMCwwLDAtLjcuNjIsMi42NiwyLjY2LDAsMCwwLS40NCwxLDUuMDUsNS4wNSwwLDAsMC0uMTUsMS4yOCw0LjksNC45LDAsMCwwLC4xNiwxLjM1LDIuNDMsMi40MywwLDAsMCwuNDYuOTQsMS43MywxLjczLDAsMCwwLC43MS41NSwyLjQsMi40LDAsMCwwLC45NS4xOCwyLjYxLDIuNjEsMCwwLDAsLjgzLS4xMSwzLjM5LDMuMzksMCwwLDAsLjYtLjI1LDQuMzcsNC4zNywwLDAsMCwuNDEtLjI1LjQ4LjQ4LDAsMCwxLC4yNC0uMWMuMDUsMCwuMDksMCwuMTEsMGEuMjMuMjMsMCwwLDEsLjA3LjExLDEuMDcsMS4wNywwLDAsMSwwLC4yM0EzLjg0LDMuODQsMCwwLDEsMjUuMjEsMzRaIi8+PHBhdGggZD0iTTMxLjM2LDM0LjU4YTMuMzIsMy4zMiwwLDAsMSwwLC4zNSwxLjE0LDEuMTQsMCwwLDEtLjA1LjIzLjI2LjI2LDAsMCwxLS4wOC4xMy4xOS4xOSwwLDAsMS0uMTIsMEgyN2EuNTcuNTcsMCwwLDEtLjM4LS4xMy41NS41NSwwLDAsMS0uMTUtLjQzdi04YS4xOS4xOSwwLDAsMSwwLS4xMi4zNS4zNSwwLDAsMSwuMTUtLjA5LDEuNDMsMS40MywwLDAsMSwuMjgtLjA1LDIuNjksMi42OSwwLDAsMSwuNDMsMCwyLjc2LDIuNzYsMCwwLDEsLjQ0LDAsMS40NiwxLjQ2LDAsMCwxLC4yNy4wNS4zNS4zNSwwLDAsMSwuMTUuMDkuMTkuMTksMCwwLDEsMCwuMTJ2Ny4xMmgyLjc5YS4xOS4xOSwwLDAsMSwuMTIsMCwuMjMuMjMsMCwwLDEsLjA4LjEyLDEsMSwwLDAsMSwuMDUuMjNBMy4xMSwzLjExLDAsMCwxLDMxLjM2LDM0LjU4WiIvPjxwYXRoIGQ9Ik00MC4xMywzMC44MWE2LjY2LDYuNjYsMCwwLDEtLjI3LDJBNCw0LDAsMCwxLDM5LDM0LjI1YTMuNDksMy40OSwwLDAsMS0xLjMzLjkyLDQuODEsNC44MSwwLDAsMS0xLjg1LjMyLDUuNSw1LjUsMCwwLDEtMS44LS4yNywzLjExLDMuMTEsMCwwLDEtMS4yOC0uODJBMy41NSwzLjU1LDAsMCwxLDMyLDMzYTcuMSw3LjEsMCwwLDEtLjI1LTJBNi41LDYuNSwwLDAsMSwzMiwyOWEzLjg3LDMuODcsMCwwLDEsLjgxLTEuNDUsMy41NSwzLjU1LDAsMCwxLDEuMzQtLjkzQTUsNSwwLDAsMSwzNiwyNi4zM2E1LjMxLDUuMzEsMCwwLDEsMS43Ny4yNywzLjE0LDMuMTQsMCwwLDEsMS4yOS44MiwzLjY1LDMuNjUsMCwwLDEsLjc4LDEuNEE2Ljg2LDYuODYsMCwwLDEsNDAuMTMsMzAuODFabS0xLjg5LjA5YTYuMTYsNi4xNiwwLDAsMC0uMTEtMS4yNiwyLjYsMi42LDAsMCwwLS4zNy0xLDEuNzgsMS43OCwwLDAsMC0uNy0uNjNBMi4zOCwyLjM4LDAsMCwwLDM2LDI3LjgxYTIuMjIsMi4yMiwwLDAsMC0xLjExLjI1LDIsMiwwLDAsMC0uNzIuNjYsMi43NSwyLjc1LDAsMCwwLS4zOCwxLDUuNTUsNS41NSwwLDAsMC0uMTIsMS4xOCw3LjMzLDcuMzMsMCwwLDAsLjExLDEuMywyLjkxLDIuOTEsMCwwLDAsLjM3LDEsMS42OCwxLjY4LDAsMCwwLC43LjYyLDIuNCwyLjQsMCwwLDAsMS4xLjIyQTIuMjIsMi4yMiwwLDAsMCwzNywzMy43NmEyLDIsMCwwLDAsLjcxLS42NywyLjU3LDIuNTcsMCwwLDAsLjM5LTFBNS42OSw1LjY5LDAsMCwwLDM4LjI0LDMwLjlaIi8+PHBhdGggZD0iTTQ4Ljg2LDMyYTQuMTgsNC4xOCwwLDAsMS0uMjQsMS40NiwyLjg0LDIuODQsMCwwLDEtLjcsMS4wOCwzLjE0LDMuMTQsMCwwLDEtMS4xNS42OCw1LDUsMCwwLDEtMS41Ny4yMyw0Ljk0LDQuOTQsMCwwLDEtMS41LS4yMSwyLjkyLDIuOTIsMCwwLDEtMS4xMi0uNjMsMi42MywyLjYzLDAsMCwxLS43LTEuMDYsNC4xMyw0LjEzLDAsMCwxLS4yNS0xLjQ4VjI2LjczYS4yMS4yMSwwLDAsMSwwLS4xMnMuMDctLjA2LjE0LS4wOWwuMjgtLjA1YTQuNzQsNC43NCwwLDAsMSwuODcsMCwxLjQ2LDEuNDYsMCwwLDEsLjI3LjA1LjM1LjM1LDAsMCwxLC4xNS4wOS4xOS4xOSwwLDAsMSwwLC4xMlYzMmEzLjA3LDMuMDcsMCwwLDAsLjEzLjkxLDEuNzQsMS43NCwwLDAsMCwuMzcuNjQsMS42NiwxLjY2LDAsMCwwLC41OS4zOCwyLjE5LDIuMTksMCwwLDAsLjc1LjEyLDIsMiwwLDAsMCwuNzYtLjEzLDEuNTYsMS41NiwwLDAsMCwuNTctLjM3LDIsMiwwLDAsMCwuMzYtLjYyLDIuNjQsMi42NCwwLDAsMCwuMTItLjgzVjI2LjczYS4yOC4yOCwwLDAsMSwwLS4xMi4zNS4zNSwwLDAsMSwuMTUtLjA5LDEuNDYsMS40NiwwLDAsMSwuMjctLjA1LDIuODIsMi44MiwwLDAsMSwuNDQsMCwyLjc1LDIuNzUsMCwwLDEsLjQzLDAsMS40NiwxLjQ2LDAsMCwxLC4yNy4wNS4zOC4zOCwwLDAsMSwuMTQuMDkuMTkuMTksMCwwLDEsMCwuMTJaIi8+PHBhdGggZD0iTTU4LjEzLDMwLjc4YTYuMDYsNi4wNiwwLDAsMS0uMzIsMi4wOCwzLjQxLDMuNDEsMCwwLDEtLjkxLDEuNDEsMy42MiwzLjYyLDAsMCwxLTEuNDUuODEsNy4wNiw3LjA2LDAsMCwxLTIsLjI1SDUxLjMxYS41Ny41NywwLDAsMS0uMzgtLjEzLjU1LjU1LDAsMCwxLS4xNS0uNDNWMjcuMDZhLjU2LjU2LDAsMCwxLC4xNS0uNDQuNTcuNTcsMCwwLDEsLjM4LS4xM2gyLjI3YTYuMjEsNi4yMSwwLDAsMSwyLC4yOCwzLjUyLDMuNTIsMCwwLDEsMS4zOS44MiwzLjY0LDMuNjQsMCwwLDEsLjg2LDEuMzRBNS40OCw1LjQ4LDAsMCwxLDU4LjEzLDMwLjc4Wm0tMS44Ni4wNmE0LjM2LDQuMzYsMCwwLDAtLjE1LTEuMTcsMi40LDIuNCwwLDAsMC0uNDctLjkzLDIuMTYsMi4xNiwwLDAsMC0uODMtLjYyLDMuMzgsMy4zOCwwLDAsMC0xLjM0LS4yMmgtLjkxdjZoLjk0YTMuNDgsMy40OCwwLDAsMCwxLjI0LS4xOSwyLjEyLDIuMTIsMCwwLDAsLjg1LS41OCwyLjQzLDIuNDMsMCwwLDAsLjUtMUE0Ljg1LDQuODUsMCwwLDAsNTYuMjcsMzAuODRaIi8+PC9nPjwvZz48L3N2Zz4=;" vertex="1" parent="1">
          <mxGeometry x="598" y="78" width="76" height="56" as="geometry" />
        </mxCell>
        <mxCell id="kadNdFoKMBePwxR4Qxik-10" style="edgeStyle=orthogonalEdgeStyle;rounded=0;orthogonalLoop=1;jettySize=auto;html=1;" edge="1" parent="1" source="kadNdFoKMBePwxR4Qxik-9" target="kadNdFoKMBePwxR4Qxik-5">
          <mxGeometry relative="1" as="geometry" />
        </mxCell>
        <mxCell id="kadNdFoKMBePwxR4Qxik-9" value="Customer" style="shape=image;editableCssRules=.*;verticalLabelPosition=bottom;labelBackgroundColor=default;verticalAlign=top;aspect=fixed;imageAspect=0;image=data:image/svg+xml,PHN2ZyB4bWxucz0iaHR0cDovL3d3dy53My5vcmcvMjAwMC9zdmciIHZpZXdCb3g9IjAgMCA3MiA3MiI+PGRlZnM+PHN0eWxlPi5jbHMtMXtmaWxsOiMzMzM7fS5jbHMtMntmaWxsOiNmZmY7fTwvc3R5bGU+PC9kZWZzPjxnIGRhdGEtbmFtZT0iTGF5ZXIgMiIgaWQ9IkxheWVyXzIiPjxnIGRhdGEtbmFtZT0iTGF5ZXIgNSIgaWQ9IkxheWVyXzUiPjxjaXJjbGUgcj0iMzYiIGN5PSIzNiIgY3g9IjM2IiBjbGFzcz0iY2xzLTEiLz48cGF0aCBkPSJNMzYuNDYsMjEuNjhjMTMsMCwyMC4yNS0yLjQzLDIwLjI1LTQuMTFzLTcuMjEtNC4xMi0yMC4yNS00LjEyUzE2LjIsMTUuODgsMTYuMiwxNy41NywyMy40MSwyMS42OCwzNi40NiwyMS42OFoiIGNsYXNzPSJjbHMtMiIvPjxwYXRoIGQ9Ik01Ni42Myw0My43VjM0LjU1QzUxLjc5LDM2LjU4LDQzLDM3LjMxLDM2LDM3LjMxYy04LjM5LDAtMTUuODItMS0yMC42Ny0yLjg0djkuMTFjMiwxLjM0LDksMy4yNywyMC42NywzLjI3aDBDNDcuODYsNDYuODUsNTUuNDcsNDQuODcsNTYuNjMsNDMuN1oiIGNsYXNzPSJjbHMtMiIvPjxwYXRoIGQ9Ik01Ni42Myw0Ny4zM0M1MS43OSw0OS4zNiw0Myw1MC4xLDM2LDUwLjFjLTguMzksMC0xNS44Mi0xLTIwLjY3LTIuODR2Ni42MWgwbC4yLjQ0Yy45MSwyLDcuNzIsNC4xMSwyMC44Nyw0LjExLDEyLjE5LDAsMTguODItMS43NiwyMC4yOC0zLjU1aDBaIiBjbGFzcz0iY2xzLTIiLz48cGF0aCBkPSJNNTYuNjMsMjEuODljLTQuMDgsMi0xMywyLjkyLTIwLjY3LDIuOTItOC44MiwwLTE2LjUyLTEuMTQtMjAuNjctM3Y5YzIsMS4zNCw5LDMuMjcsMjAuNjcsMy4yNywxMS45LDAsMTkuNTEtMiwyMC42Ny0zLjE1WiIgY2xhc3M9ImNscy0yIi8+PC9nPjwvZz48L3N2Zz4=;" vertex="1" parent="1">
          <mxGeometry x="200" y="350.0000000000002" width="72" height="72" as="geometry" />
        </mxCell>
        <mxCell id="kadNdFoKMBePwxR4Qxik-13" style="edgeStyle=orthogonalEdgeStyle;rounded=0;orthogonalLoop=1;jettySize=auto;html=1;entryX=0;entryY=0.5;entryDx=0;entryDy=0;" edge="1" parent="1" source="kadNdFoKMBePwxR4Qxik-11">
          <mxGeometry relative="1" as="geometry">
            <mxPoint x="240" y="505.9999999999998" as="targetPoint" />
          </mxGeometry>
        </mxCell>
        <mxCell id="kadNdFoKMBePwxR4Qxik-22" style="edgeStyle=orthogonalEdgeStyle;rounded=0;orthogonalLoop=1;jettySize=auto;html=1;entryX=0.5;entryY=0;entryDx=0;entryDy=0;" edge="1" parent="1" source="kadNdFoKMBePwxR4Qxik-15" target="kadNdFoKMBePwxR4Qxik-21">
          <mxGeometry relative="1" as="geometry" />
        </mxCell>
        <mxCell id="kadNdFoKMBePwxR4Qxik-15" value="" style="shape=image;verticalLabelPosition=bottom;labelBackgroundColor=default;verticalAlign=top;aspect=fixed;imageAspect=0;image=data:image/svg+xml,PHN2ZyB4bWxucz0iaHR0cDovL3d3dy53My5vcmcvMjAwMC9zdmciIHZpZXdCb3g9IjAgMCA3MiA3MiI+PGRlZnM+PHN0eWxlPi5jbHMtMXtmaWxsOiM0NmM3OTU7fS5jbHMtMntmaWxsOiNmZmY7fS5jbHMtM3tmaWxsOiMzMzM7fTwvc3R5bGU+PC9kZWZzPjxnIGRhdGEtbmFtZT0iTGF5ZXIgMiIgaWQ9IkxheWVyXzIiPjxnIGRhdGEtbmFtZT0iTGF5ZXIgNSIgaWQ9IkxheWVyXzUiPjxwYXRoIGQ9Ik00MS43NC40OEEzNiwzNiwwLDEsMCw3MS41Miw0MS43NCwzNS45NSwzNS45NSwwLDAsMCw0MS43NC40OFoiIGNsYXNzPSJjbHMtMSIvPjxwYXRoIGQ9Ik0yNS41OSw0Ny44VjM3LjU0bDEuNDkuODJxNC42NCwyLjYsOS4yNiw1LjIxYS44OS44OSwwLDAsMCwxLDBMNDcuNDIsMzcuNmwuMzYtLjE5VjQ3Ljc4QzQ3LjQ3LDQ3Ljg5LDI2LjE0LDQ3LjkyLDI1LjU5LDQ3LjhaIiBjbGFzcz0iY2xzLTIiLz48cGF0aCBkPSJNMzYuNzMsNTEuNDZIMjIuODJjLS43MiwwLS42NywwLS42Ny0uN3YtMThjMC0uNzIuMDUtLjY5LS42OC0uNjlIMTkuMTRjLS40NywwLS40OCwwLS40OS0uNDd2LS44MWMwLS40LDAtLjQyLjQ1LS40Mi45MywwLDEuODUsMCwyLjc4LDAsLjU1LDAsMS4xLjA1LDEuNjYuMDcuMjIsMCwuMzMuMS4zMi4zM1Y0OWExLjA4LDEuMDgsMCwwLDAsMCwuMThjMCwuNTMsMCwuNTMuNTEuNTNINDkuMWMuNTEsMCwuNTEsMCwuNTEtLjU4VjMxLjA4YzAtLjkxLS4wOS0uODEuODMtLjgxaDMuOWMuNDYsMCwuNDcsMCwuNDguNDh2LjgxYzAsLjM4LDAsLjQxLS40Mi40MS0uODIsMC0xLjY0LDAtMi40NiwwLS42MiwwLS42MywwLS42Mi42MVY1MC43MmMwLC43OSwwLC43NC0uNzIuNzRaIiBjbGFzcz0iY2xzLTIiLz48cGF0aCBkPSJNMjUuNTYsMzUuNTFINDcuNzhjMCwuMTUsMCwuMjgsMCwuNDFhLjU2LjU2LDAsMCwxLS4zNC42MWMtMS4yNy43My0yLjUyLDEuNDgtMy43OSwyLjIyLTIuMTMsMS4yNi00LjI4LDIuNTEtNi40MSwzLjc5YS44MS44MSwwLDAsMS0uOTQsMFEzMS4xMywzOS42LDI1LjksMzYuNjlhLjU3LjU3LDAsMCwxLS4zNC0uNjFDMjUuNTcsMzUuOTEsMjUuNTYsMzUuNzMsMjUuNTYsMzUuNTFaIiBjbGFzcz0iY2xzLTIiLz48cGF0aCBkPSJNNDAuNTIsNTcuODd2NS4wNUgzOVY1NS4yOWwuNjIsMGgxLjNjLjQzLDAsLjQzLDAsLjU3LjQyLjQ5LDEuNDIsMSwyLjg1LDEuNDYsNC4yOC4wNS4xNi4xMS4zMS4yLjU1LjA3LS4xOC4xMy0uMjkuMTYtLjQuNDgtMS40Ny45NC0yLjkzLDEuNDItNC40LjE0LS40NS4xNS0uNDUuNjItLjQ1SDQ2LjdsLjQ3LDB2Ny42M0g0NS42OGMtLjA4LS44OCwwLTEuNzUsMC0yLjYzczAtMS43Mi0uMDgtMi42Yy0uMDYuMTUtLjEyLjMtLjE3LjQ1bC0xLjUzLDQuNGMtLjE0LjQxLS4xNS40Mi0uNTYuNDItMS4wOCwwLS44Mi4xNS0xLjE3LS44Mkw0MC44LDU4LjMzYzAtLjE2LS4xMS0uMzEtLjE3LS40NloiIGNsYXNzPSJjbHMtMiIvPjxwYXRoIGQ9Ik01NC43Myw2MmwuOTEuODYtLjc3LjgtMS4xMS0xYTQuMDksNC4wOSwwLDAsMS0xLjk0LjQ0LDMuNjMsMy42MywwLDAsMS0zLjYzLTMuMzksNC41Niw0LjU2LDAsMCwxLC4zOS0yLjYyLDMuNTgsMy41OCwwLDAsMSwzLjU5LTJBMy40NiwzLjQ2LDAsMCwxLDU1LDU2Ljc1YTQuNDQsNC40NCwwLDAsMSwuNjMsMi43NCw0LjI0LDQuMjQsMCwwLDEtLjg1LDIuMzJTNTQuNzcsNjEuOTIsNTQuNzMsNjJabS0xLjItMS4xMWE0LDQsMCwwLDAsLjI0LS40NCwzLjYzLDMuNjMsMCwwLDAtLjA4LTIuOCwyLDIsMCwwLDAtMy42MS4xMiwzLjc3LDMuNzcsMCwwLDAtLjA4LDIuNSwxLjksMS45LDAsMCwwLDEuMjcsMS4zNSwyLjE0LDIuMTQsMCwwLDAsMS4zLDBMNTEuODksNjFsLjc4LS44WiIgY2xhc3M9ImNscy0yIi8+PHBhdGggZD0iTTM0Ljk0LDYyLjkzaC0uNzNjMC0uNywwLTEuNCwwLTIuMDlWNTYuNjFsLS4xLDBjLS4wOS4yMy0uMTkuNDYtLjI4LjdxLTEuMDUsMi42NC0yLjA5LDUuMjlhLjQ4LjQ4LDAsMCwxLS41MS4zOWMtLjMxLDAtLjQtLjE3LS41LS40MS0uNTgtMS40OS0xLjE3LTMtMS43Ni00LjQ2bC0uNjEtMS41MS0uMTEsMHY2LjMxaC0uNzRjMC0uMTYsMC0uMywwLS40NVY1NS43OWMwLS41MywwLS41My41Ny0uNTNzLjUyLDAsLjcxLjQ4TDMxLDYxLjMyYy4wOC4xOS4xNS4zOC4yNi42NS4wOS0uMTkuMTQtLjI5LjE4LS4zOXExLjE1LTIuOTQsMi4zMi01Ljg4Yy4wNi0uMTUuMTctLjM4LjI5LS40YTIuNjMsMi42MywwLDAsMSwuODQsMHMuMS4xMy4xMi4yMWEyLjE3LDIuMTcsMCwwLDEsMCwuMzZjMCwyLjE3LDAsNC4zMywwLDYuNUMzNSw2Mi41NiwzNSw2Mi43MywzNC45NCw2Mi45M1oiIGNsYXNzPSJjbHMtMiIvPjxwYXRoIGQ9Ik0yMC4zNyw1NS4zYTEuODYsMS44NiwwLDAsMSwuMjYsMGwzLjU5LjA3YTEuOTMsMS45MywwLDAsMSwuNTIuMTFBMS42MSwxLjYxLDAsMCwxLDI2LDU2Ljg4YTEuNzMsMS43MywwLDAsMS0xLDEuODlsLS4yMS4xLjI4LjEzYTEuNzQsMS43NCwwLDAsMSwxLjIzLDEuNywxLjgsMS44LDAsMCwxLS45NSwxLjg0LDMuNDMsMy40MywwLDAsMS0xLjM2LjM5Yy0xLjE1LjA2LTIuMywwLTMuNDUsMGExLjE1LDEuMTUsMCwwLDEtLjItLjA1Wm0uNzIsNywuMjMsMGMuODUsMCwxLjcsMCwyLjU1LDBhMywzLDAsMCwwLC43NC0uMTQsMS4zNCwxLjM0LDAsMCwwLDEtMS40MywxLjI4LDEuMjgsMCwwLDAtMS0xLjMzLDMuNDQsMy40NCwwLDAsMC0uNzktLjE0SDIxLjQ0YTIuNDUsMi40NSwwLDAsMC0uMzUsMFptMC0zLjY5YTIuODgsMi44OCwwLDAsMCwuMzUsMGgyLjI0YTIuNzgsMi43OCwwLDAsMCwuNy0uMTIsMS4yMiwxLjIyLDAsMCwwLC45Mi0xLjMyQTEuMTgsMS4xOCwwLDAsMCwyNC4xNyw1NmMtMS0uMDgtMiwwLTMtLjA2LDAsMC0uMDUsMC0uMDkuMDdaIiBjbGFzcz0iY2xzLTIiLz48cGF0aCBkPSJNMTguNjgsNjIuOTNoLS42M1Y1NS4zaC42MUMxOC43Nyw1NS42NCwxOC43OSw2Mi40MywxOC42OCw2Mi45M1oiIGNsYXNzPSJjbHMtMiIvPjxwYXRoIGQ9Ik0yOC40OSwxMC4wOEgyMGEuNTQuNTQsMCwwLDAtLjU0LjU0djUuMzFIOS4yYTMzLjUsMzMuNSwwLDAsMC0yLjM0LDMuODFIMTkuNDd2NS4zMWEuNTQuNTQsMCwwLDAsLjU0LjU0aDguNDhhLjU0LjU0LDAsMCwwLC41My0uNTRWMTAuNjJBLjU0LjU0LDAsMCwwLDI4LjQ5LDEwLjA4WiIgY2xhc3M9ImNscy0yIi8+PHJlY3QgaGVpZ2h0PSIwLjAxIiB3aWR0aD0iNi4xMyIgeT0iMjMuMjgiIHg9IjM1LjY3IiBjbGFzcz0iY2xzLTMiLz48cGF0aCBkPSJNNTYuMjIsMTUuOTNWMTMuMjZhLjUzLjUzLDAsMCwwLS4zOS0uNTFMNDcsMTAuMWwtLjE1LDBINDIuMzRhLjU0LjU0LDAsMCwwLS41NC41NHYuNjlIMzUuMTRhLjU0LjU0LDAsMCwwLS41NC41NHYxMmEuNTQuNTQsMCwwLDAsLjU0LjU0SDQxLjh2LjY5YS41NC41NCwwLDAsMCwuNTQuNTRINDYuOGwuMTUsMCw4Ljg4LTIuNjVhLjU0LjU0LDAsMCwwLC4zOS0uNTFWMTkuNzRoOWEzMS42MywzMS42MywwLDAsMC0yLjM0LTMuODFabS0xNCw3LjM1SDM1LjY3VjEyLjM4SDQyLjJaIiBjbGFzcz0iY2xzLTIiLz48L2c+PC9nPjwvc3ZnPg==;" vertex="1" parent="1">
          <mxGeometry x="600" y="510" width="72" height="72" as="geometry" />
        </mxCell>
        <mxCell id="kadNdFoKMBePwxR4Qxik-20" style="edgeStyle=orthogonalEdgeStyle;rounded=0;orthogonalLoop=1;jettySize=auto;html=1;entryX=0;entryY=0.5;entryDx=0;entryDy=0;" edge="1" parent="1" source="kadNdFoKMBePwxR4Qxik-16" target="kadNdFoKMBePwxR4Qxik-19">
          <mxGeometry relative="1" as="geometry" />
        </mxCell>
        <mxCell id="kadNdFoKMBePwxR4Qxik-16" value="" style="shape=image;verticalLabelPosition=bottom;labelBackgroundColor=default;verticalAlign=top;aspect=fixed;imageAspect=0;image=data:image/svg+xml,PHN2ZyB4bWxucz0iaHR0cDovL3d3dy53My5vcmcvMjAwMC9zdmciIHZpZXdCb3g9IjAgMCA3MiA3MiI+PGRlZnM+PHN0eWxlPi5jbHMtMXtmaWxsOiM0NmM3OTU7fS5jbHMtMntmaWxsOiNmZmY7fS5jbHMtM3tmaWxsOiMzMzM7fTwvc3R5bGU+PC9kZWZzPjxnIGRhdGEtbmFtZT0iTGF5ZXIgMiIgaWQ9IkxheWVyXzIiPjxnIGRhdGEtbmFtZT0iTGF5ZXIgNSIgaWQ9IkxheWVyXzUiPjxwYXRoIGQ9Ik00MS43NC40OEEzNiwzNiwwLDEsMCw3MS41Miw0MS43NCwzNS45NSwzNS45NSwwLDAsMCw0MS43NC40OFoiIGNsYXNzPSJjbHMtMSIvPjxwYXRoIGQ9Ik01My42Myw0Mi4xNGEuNDkuNDksMCwwLDAtLjItLjExLjYxLjYxLDAsMCwwLS4yNCwwaC0uOTJhMS4zOCwxLjM4LDAsMCwwLS4zNywwLC44NC44NCwwLDAsMC0uNTMuNDIsMi40OCwyLjQ4LDAsMCwwLS4yLjQzTDQ4LDUwLjY0aDBsLTMuMDctNy43OGExLjc2LDEuNzYsMCwwLDAtLjE4LS4zOS44MS44MSwwLDAsMC0uMjUtLjI3LDEsMSwwLDAsMC0uMzUtLjE2LDIuMjgsMi4yOCwwLDAsMC0uNDgsMGgtLjg3YS42OC42OCwwLDAsMC0uNDIuMTUuNjEuNjEsMCwwLDAtLjE4LjV2OS44OGEuMi4yLDAsMCwwLDAsLjExLjI0LjI0LDAsMCwwLC4xMS4wOC45LjksMCwwLDAsLjIyLDBsLjM0LDAsLjM1LDBhLjkuOSwwLDAsMCwuMjIsMCwuMjMuMjMsMCwwLDAsLjEyLS4wOC4xNS4xNSwwLDAsMCwwLS4xMVY0My4xNmgwbDMuNjIsOS40LjA3LjA5YS4zMi4zMiwwLDAsMCwuMTMuMDcuODguODgsMCwwLDAsLjIsMGwuMywwaC4yOWwuMjEsMCwuMTMtLjA3YS4zNi4zNiwwLDAsMCwuMDctLjFsMy43OC05LjRoMHY5LjM2YS4yLjIsMCwwLDAsMCwuMTEuMzYuMzYsMCwwLDAsLjEyLjA4LjkuOSwwLDAsMCwuMjIsMGwuMzQsMCwuMzUsMCwuMjEsMGEuMjMuMjMsMCwwLDAsLjEyLS4wOC4xNS4xNSwwLDAsMCwwLS4xMVY0Mi42NGEuODUuODUsMCwwLDAtLjA1LS4zQTEsMSwwLDAsMCw1My42Myw0Mi4xNFoiIGNsYXNzPSJjbHMtMiIvPjxwYXRoIGQ9Ik02MS42Niw0Ny44YTMuODUsMy44NSwwLDAsMC0uNzgtLjYsOS41OSw5LjU5LDAsMCwwLS45LS40N2wtLjg5LS40MmE0LjU0LDQuNTQsMCwwLDEtLjc5LS40NSwyLjI3LDIuMjcsMCwwLDEtLjU1LS41NywxLjQyLDEuNDIsMCwwLDEtLjIxLS43OCwxLjYyLDEuNjIsMCwwLDEsLjExLS41OCwxLjI3LDEuMjcsMCwwLDEsLjMyLS40NywxLjczLDEuNzMsMCwwLDEsLjU1LS4zMkEyLjI4LDIuMjgsMCwwLDEsNTkuMyw0M2EzLDMsMCwwLDEsLjg3LjEyLDUsNSwwLDAsMSwuNjcuMjZsLjQ4LjI3YS43My43MywwLDAsMCwuMjguMTEuMi4yLDAsMCwwLC4xMSwwLC4zNS4zNSwwLDAsMCwuMDctLjEyLjk0Ljk0LDAsMCwwLDAtLjIsMS44NCwxLjg0LDAsMCwwLDAtLjI2YzAtLjExLDAtLjE5LDAtLjI2czAtLjEyLDAtLjE3YS4zNC4zNCwwLDAsMCwwLS4xMi40NC40NCwwLDAsMC0uMS0uMTIsMS45MiwxLjkyLDAsMCwwLS4zMy0uMjEsNS4xOSw1LjE5LDAsMCwwLS41Ny0uMjMsNi4xNCw2LjE0LDAsMCwwLS42OC0uMTcsNC4zNyw0LjM3LDAsMCwwLS43Mi0uMDYsNC4yNiw0LjI2LDAsMCwwLTEuMy4xOSwyLjg5LDIuODksMCwwLDAtMSwuNTQsMi40OSwyLjQ5LDAsMCwwLS42OC44OSwzLDMsMCwwLDAsMCwyLjMyLDMsMywwLDAsMCwuNTUuODIsMy44NSwzLjg1LDAsMCwwLC43OC42LDcuNDMsNy40MywwLDAsMCwuODguNDdsLjkuNDJhMy44LDMuOCwwLDAsMSwuNzcuNDUsMiwyLDAsMCwxLC41NS41NywxLjM4LDEuMzgsMCwwLDEsLjIxLjc4LDEuNzksMS43OSwwLDAsMS0uMTUuNzUsMS40OCwxLjQ4LDAsMCwxLS40My41NiwyLDIsMCwwLDEtLjY2LjM1LDIuNTcsMi41NywwLDAsMS0uODUuMTMsMy42NCwzLjY0LDAsMCwxLTEuMDktLjE1LDQuNzgsNC43OCwwLDAsMS0uOC0uMzEsNC4xMiw0LjEyLDAsMCwxLS41NC0uMzEuNzEuNzEsMCwwLDAtLjMzLS4xNGwtLjEyLDBhLjI0LjI0LDAsMCwwLS4wOC4xMS43NC43NCwwLDAsMCwwLC4xOSwyLjYzLDIuNjMsMCwwLDAsMCwuMywxLjYxLDEuNjEsMCwwLDAsMCwuNDIuNjguNjgsMCwwLDAsLjE0LjI1LDEuNTksMS41OSwwLDAsMCwuMzQuMjQsNC41Niw0LjU2LDAsMCwwLC42MS4yNyw1LjA1LDUuMDUsMCwwLDAsLjgyLjIzLDUuMjQsNS4yNCwwLDAsMCwxLC4wOSw0LjgyLDQuODIsMCwwLDAsMS40NC0uMjEsMy4yNCwzLjI0LDAsMCwwLDEuMTYtLjYyLDIuNzIsMi43MiwwLDAsMCwuNzctMSwzLDMsMCwwLDAsLjI4LTEuMzQsMi42OCwyLjY4LDAsMCwwLS4yMS0xLjExQTIuNzMsMi43MywwLDAsMCw2MS42Niw0Ny44WiIgY2xhc3M9ImNscy0yIi8+PHBhdGggZD0iTTM5LjczLDUxLjY4YS4yNC4yNCwwLDAsMC0uMS0uMS4yMS4yMSwwLDAsMC0uMTIsMEgzNS4yNlY0Ny43aDMuNmwuMTIsMGEuMjYuMjYsMCwwLDAsLjA5LS4wOS43OC43OCwwLDAsMCwwLS4xOCwxLjg0LDEuODQsMCwwLDAsMC0uMjYsMi4xMywyLjEzLDAsMCwwLDAtLjI3LjU2LjU2LDAsMCwwLDAtLjE4LjMzLjMzLDAsMCwwLS4wOS0uMTFsLS4xMiwwaC0zLjZWNDMuMThoNC4yYS4xOS4xOSwwLDAsMCwuMTIsMCwuMjEuMjEsMCwwLDAsLjA4LS4xLjc2Ljc2LDAsMCwwLC4wNi0uMTgsMiwyLDAsMCwwLDAtLjI2LDEuOTEsMS45MSwwLDAsMCwwLS4yOC43MS43MSwwLDAsMC0uMDYtLjE5LjMxLjMxLDAsMCwwLS4wOC0uMTEuMjcuMjcsMCwwLDAtLjEyLDBoLTUuMWEuNTUuNTUsMCwwLDAtLjM2LjEzLjUuNSwwLDAsMC0uMTcuNDV2OS41OGEuNS41LDAsMCwwLC4xNy40NS41NS41NSwwLDAsMCwuMzYuMTNoNS4xNWEuMjEuMjEsMCwwLDAsLjEyLDAsLjI3LjI3LDAsMCwwLC4xLS4xMS40Ny40NywwLDAsMCwuMDYtLjE5LDIsMiwwLDAsMCwwLS4yNiwyLjM1LDIuMzUsMCwwLDAsMC0uMjhBLjQ4LjQ4LDAsMCwwLDM5LjczLDUxLjY4WiIgY2xhc3M9ImNscy0yIi8+PHBhdGggZD0iTTI0LjYxLDM3Ljg3Yy0uMzMtLjIyLS42LS4zMy0uODgtLjQ5bC0uMDUsMGEzNC4zLDM0LjMsMCwwLDEtNS4wNSw3LDI4LjYsMjguNiwwLDAsMS00Ljg3LDQuMzMsMjYuNDIsMjYuNDIsMCwwLDEtMy4wNywxLjg2Yy0uMTEuMDYtLjExLjE3LS4wNi4yOC4zMy41NC42NiwxLjA5LDEsMS41OS4wNS4xMS4xNi4xNi4yMi4yN0EzOS4xOCwzOS4xOCwwLDAsMCwyNC42MSwzNy44N1oiIGNsYXNzPSJjbHMtMiIvPjxwYXRoIGQ9Ik0yMy41MSwzNy4zOGE5LDksMCwwLDAtMi45LS43Nyw0LjQ2LDQuNDYsMCwwLDEtLjgyLDBoLS44OGMtLjMzLDAtLjcxLDAtMSwuMTFhOS4zMyw5LjMzLDAsMCwwLTguMjMsOS4xQTEwLjYxLDEwLjYxLDAsMCwwLDkuNzUsNDhhMy40MSwzLjQxLDAsMCwwLC4xNy45MywyNy4zNCwyNy4zNCwwLDAsMCw3LjczLTQuNzdBMzEuNDcsMzEuNDcsMCwwLDAsMjMuNTEsMzcuMzhaIiBjbGFzcz0iY2xzLTIiLz48cGF0aCBkPSJNMjYuOCwzOS43OWE5LjgyLDkuODIsMCwwLDAtMi0xLjc1LDQ0Ljg2LDQ0Ljg2LDAsMCwxLTExLjMsMTYuMjNsMS4zMi42NUE5LDksMCwwLDAsMTgsNTUuOGEzLjA5LDMuMDksMCwwLDEsLjc3LjA2aC44OGEyLjg0LDIuODQsMCwwLDAsLjcxLS4wNiw5LjIxLDkuMjEsMCwwLDAsOC4zMy03LjQsNy41OSw3LjU5LDAsMCwwLC4xNy0yLjkxQTkuNiw5LjYsMCwwLDAsMjYuOCwzOS43OVoiIGNsYXNzPSJjbHMtMiIvPjxwYXRoIGQ9Ik0yOC40OSwxMC4wOEgyMGEuNTQuNTQsMCwwLDAtLjU0LjU0djUuMzFIOS4yYTMzLjUsMzMuNSwwLDAsMC0yLjM0LDMuODFIMTkuNDd2NS4zMWEuNTQuNTQsMCwwLDAsLjU0LjU0aDguNDhhLjU0LjU0LDAsMCwwLC41My0uNTRWMTAuNjJBLjU0LjU0LDAsMCwwLDI4LjQ5LDEwLjA4WiIgY2xhc3M9ImNscy0yIi8+PHJlY3QgaGVpZ2h0PSIwLjAxIiB3aWR0aD0iNi4xMyIgeT0iMjMuMjgiIHg9IjM1LjY3IiBjbGFzcz0iY2xzLTMiLz48cGF0aCBkPSJNNTYuMjIsMTUuOTNWMTMuMjZhLjUzLjUzLDAsMCwwLS4zOS0uNTFMNDcsMTAuMWwtLjE1LDBINDIuMzRhLjU0LjU0LDAsMCwwLS41NC41NHYuNjlIMzUuMTRhLjU0LjU0LDAsMCwwLS41NC41NHYxMmEuNTQuNTQsMCwwLDAsLjU0LjU0SDQxLjh2LjY5YS41NC41NCwwLDAsMCwuNTQuNTRINDYuOGwuMTUsMCw4Ljg4LTIuNjVhLjU0LjU0LDAsMCwwLC4zOS0uNTFWMTkuNzRoOWEzMS42MywzMS42MywwLDAsMC0yLjM0LTMuODFabS0xNCw3LjM1SDM1LjY3VjEyLjM4SDQyLjJaIiBjbGFzcz0iY2xzLTIiLz48L2c+PC9nPjwvc3ZnPg==;" vertex="1" parent="1">
          <mxGeometry x="830" y="350" width="72" height="72" as="geometry" />
        </mxCell>
        <mxCell id="kadNdFoKMBePwxR4Qxik-19" value="" style="shape=image;editableCssRules=.*;verticalLabelPosition=bottom;verticalAlign=top;imageAspect=0;aspect=fixed;image=data:image/svg+xml,PHN2ZyB4bWxucz0iaHR0cDovL3d3dy53My5vcmcvMjAwMC9zdmciIHZpZXdCb3g9IjAgMCA3MiA3MiI+PGRlZnM+PHN0eWxlPi5jbHMtMXtmaWxsOiMzMzM7fS5jbHMtMntmaWxsOiNmZmY7fTwvc3R5bGU+PC9kZWZzPjxnIGRhdGEtbmFtZT0iTGF5ZXIgMiIgaWQ9IkxheWVyXzIiPjxnIGRhdGEtbmFtZT0iTGF5ZXIgNSIgaWQ9IkxheWVyXzUiPjxjaXJjbGUgcj0iMzYiIGN5PSIzNiIgY3g9IjM2IiBjbGFzcz0iY2xzLTEiLz48cGF0aCBkPSJNMTEuNTgsNDAuNjVhMjcuODYsMjcuODYsMCwwLDEtLjMtNS44Yy42LTguOCw0LjItMTUuOSwxMi4zLTIwLjVhMjQsMjQsMCwwLDEsOC43LTIuOGwyLjYtLjNoMi4yYy43LjEsMS40LjEsMi4xLjJhMjcuODEsMjcuODEsMCwwLDEsNy40LDEuOSw3Ny4xNyw3Ny4xNywwLDAsMS0xNSwxNy4zLDY3Ljc4LDY3Ljc4LDAsMCwxLTE5LjcsMTIuMkMxMS43OCw0Mi4wNSwxMS42OCw0MS4zNSwxMS41OCw0MC42NVpNMTYuMzgsNTJjLS44LTEuMy0xLjctMi42LTIuNS00LS4yLS4zLS4xLS41LjItLjdhNjIuODUsNjIuODUsMCwwLDAsNy44LTQuOCw3Nyw3NywwLDAsMCwxMi41LTExLDg1LjkzLDg1LjkzLDAsMCwwLDEyLjktMTcuOC4zNS4zNSwwLDAsMCwuMS0uMmMuNy40LDEuNC43LDIuMiwxLjJhMTAxLjEsMTAxLjEsMCwwLDEtMzIuNiwzOEMxNi43OCw1Mi40NSwxNi40OCw1Mi4yNSwxNi4zOCw1MlptNDMuNy0xMC4zYTIzLjY3LDIzLjY3LDAsMCwxLTIxLjIsMTguOWMtLjYuMS0xLjIuMS0xLjguMmgtMi4yYy0uNi0uMS0xLjMtLjEtMS45LS4yYTI2LjEzLDI2LjEzLDAsMCwxLTguMy0yLjJjLTEuMS0uNS0yLjItMS4xLTMuMy0xLjcsMTMtMTEuOCwyMi4yLTI1LjgsMjguOC00MS41YTI0LDI0LDAsMCwxLDUuMiw0LjUsMjMuNzIsMjMuNzIsMCwwLDEsNS4zLDE0LjVBMjMuODEsMjMuODEsMCwwLDEsNjAuMDgsNDEuNjVaIiBjbGFzcz0iY2xzLTIiLz48L2c+PC9nPjwvc3ZnPg==" vertex="1" parent="1">
          <mxGeometry x="960" y="350" width="72" height="72" as="geometry" />
        </mxCell>
        <mxCell id="kadNdFoKMBePwxR4Qxik-21" value="" style="shape=image;editableCssRules=.*;verticalLabelPosition=bottom;verticalAlign=top;imageAspect=0;aspect=fixed;image=data:image/svg+xml,PHN2ZyB4bWxucz0iaHR0cDovL3d3dy53My5vcmcvMjAwMC9zdmciIHZpZXdCb3g9IjAgMCA3MiA3MiI+PGRlZnM+PHN0eWxlPi5jbHMtMXtmaWxsOiMzMzM7fS5jbHMtMntmaWxsOiNmZmY7fTwvc3R5bGU+PC9kZWZzPjxnIGRhdGEtbmFtZT0iTGF5ZXIgMiIgaWQ9IkxheWVyXzIiPjxnIGRhdGEtbmFtZT0iTGF5ZXIgNSIgaWQ9IkxheWVyXzUiPjxjaXJjbGUgcj0iMzYiIGN5PSIzNiIgY3g9IjM2IiBjbGFzcz0iY2xzLTEiLz48cGF0aCBkPSJNNTYuNDUsMjRINjZ2MS42SDU1Ljc1Wm0tMS4xLDMuMUg2NnYxLjZINTQuNjVabTIuMywxNy43di0xLjZoOC40djEuNlptOC40LDEuN3YxLjZoLTguNHYtMS42Wm0tMy40LTYuNHYxLjZoLTQuOXYtMS42Wm0tNS0xLjd2LTEuNmg0Ljl2MS42Wm0tMy40LThoOC40VjMyaC04LjlaTTUyLjc1LDM1bC41LTEuM2g5LjV2MS42aC00Ljl2LTEuNWwtLjUsMS41aC04LjlsLS41LTEuNXYxLjVoLTQuOXYtMS42aDkuNVptLTEuMyw5LjgtLjUtMS42aDMuNWwtLjUsMS42Wm0xLjksMS43LS41LDEuNi0uNS0xLjZabS0zLTQuOC0uNS0xLjZoNS42bC0uNSwxLjZabS0xLTMuMy0uNS0xLjZoNy44bC0uNSwxLjZabS02LjYsMHYtMS42aDQuOXYxLjZabTQuOSwxLjd2MS42aC00Ljl2LTEuNlptNC04aC04Ljl2LTEuNmg4LjRaTTM5LjI1LDI0aDkuNWwuNSwxLjZIMzkuMDVsLjItMS42Wm0wLDMuMWgxMC42bC41LDEuNkgzOS4wNWwuMi0xLjZabTAsMTYuMWg4LjR2MS42aC04LjRabTAsMy4zaDguNHYxLjZoLTguNFptLTE2LjUtOC4xdi0xLjZoMTMuM2MuNS41LDEuMSwxLjEsMS41LDEuNlptNC45LDEuN3YxLjZoLTQuOXYtMS42Wm05LjYtNi40YTMuODksMy44OSwwLDAsMS0xLjUsMS42SDIyLjQ1di0xLjZabS0xNC41LTEuNnYtMS42aDQuOXYxLjZabTEwLDhoNS4zYTQuNCw0LjQsMCwwLDEsLjIsMS42aC01LjVabTUuMS04aC01LjN2LTEuNmg1LjVBMy4wOCwzLjA4LDAsMCwxLDM3Ljg1LDMyLjA1Wk0xOS40NSwyNGgxMi40YTcuODgsNy44OCwwLDAsMSw0LjQsMS42SDE5LjQ1VjI0Wm0wLDMuMWgxNy45YTUuNTgsNS41OCwwLDAsMSwuNywxLjZIMTkuNDV2LTEuNlptMCwxNi4xaDE4LjZhMTEuMTEsMTEuMTEsMCwwLDEtLjcsMS42SDE5LjQ1di0xLjZabTAsMy4zaDE2LjdhNiw2LDAsMCwxLTQuNCwxLjZIMTkuMzV2LTEuNlpNNiwyNGgxMS43djEuNkg2Wm0wLDMuMWgxMS43djEuNkg2Wm0zLjQsMTEuM3YtMS42aDQuOXYxLjZabTUsMS43djEuNkg5LjQ1di0xLjZabS01LTQuOHYtMS42aDQuOXYxLjZabTAtMy4ydi0xLjZoNC45djEuNlpNNiw0My4xNWgxMS43djEuNkg2Wm0wLDMuM2gxMS43djEuNkg2WiIgY2xhc3M9ImNscy0yIi8+PC9nPjwvZz48L3N2Zz4=" vertex="1" parent="1">
          <mxGeometry x="600" y="670" width="72" height="72" as="geometry" />
        </mxCell>
        <mxCell id="kadNdFoKMBePwxR4Qxik-29" value="acmebank/solace/core/payment/&gt;" style="edgeStyle=orthogonalEdgeStyle;rounded=0;orthogonalLoop=1;jettySize=auto;html=1;entryX=0;entryY=1;entryDx=0;entryDy=0;verticalAlign=bottom;exitX=1;exitY=0.5;exitDx=0;exitDy=0;" edge="1" parent="1" source="kadNdFoKMBePwxR4Qxik-28" target="V8S6c6sAEREi9b41OBRZ-2">
          <mxGeometry x="-0.5096" relative="1" as="geometry">
            <Array as="points">
              <mxPoint x="540" y="506" />
              <mxPoint x="540" y="422" />
            </Array>
            <mxPoint as="offset" />
          </mxGeometry>
        </mxCell>
        <mxCell id="kadNdFoKMBePwxR4Qxik-28" value="" style="shape=image;verticalLabelPosition=bottom;labelBackgroundColor=default;verticalAlign=middle;aspect=fixed;imageAspect=0;image=data:image/svg+xml,PHN2ZyB4bWxucz0iaHR0cDovL3d3dy53My5vcmcvMjAwMC9zdmciIHZpZXdCb3g9IjAgMCA3MiA3MiI+PGRlZnM+PHN0eWxlPi5jbHMtMXtmaWxsOiM0NmM3OTU7fS5jbHMtMntmaWxsOiNmZmY7fTwvc3R5bGU+PC9kZWZzPjxnIGRhdGEtbmFtZT0iTGF5ZXIgMiIgaWQ9IkxheWVyXzIiPjxnIGRhdGEtbmFtZT0iTGF5ZXIgNSIgaWQ9IkxheWVyXzUiPjxjaXJjbGUgcj0iMzYiIGN5PSIzNiIgY3g9IjM2IiBjbGFzcz0iY2xzLTEiLz48cGF0aCBkPSJNNDEuMDYsNi4zMmgwbS0uMTMsMCwxLjQ1LDcuNjEuMTcuODUuODIuMjkuMjcuMDljLjQ5LjE3LDEsLjMzLDEuNDIuNTRhMTMuMywxMy4zLDAsMCwxLDEuMzQuNzFsLjI1LjE0Ljc2LjQzLjc0LS40NSw2LjY3LTMuOTQsNS4zNiw2LjExLTQuMzIsNS45MS0uNTMuNzIuMzkuODJhMjEuNjksMjEuNjksMCwwLDEsMS40LDMuNjdsLjI0Ljg3Ljg4LjIsNy4xMywxLjU2LDAsOC4xM0w1Ny44LDQyLDU3LDQyLjJsLS4yOS44MSwwLC4xMWMtLjE5LjU1LS4zOCwxLjA2LS42LDEuNTdzLS41MSwxLS44LDEuNTNsMCwuMDgtLjQyLjc1LjQ0Ljc0LDMuOTMsNi42Nkw1Myw1OS44MSw0Ny4xNCw1NS41LDQ2LjQxLDU1bC0uODEuMzlhMjIuMDgsMjIuMDgsMCwwLDEtMy42OCwxLjM5bC0uODcuMjUtLjE5Ljg4TDM5LjI4LDY1bC04LjEzLDAtMS40Ny03LjYyLS4xNi0uODQtLjgxLS4yOS0uMTMsMGMtLjU0LS4xOS0xLS4zNy0xLjU1LS41OXMtMS0uNDktMS40Ny0uNzdsLS4xMi0uMDctLjc1LS40MS0uNzQuNDQtNi42OCwzLjk0TDExLjksNTIuNjhsNC4zMi01LjkyLjUzLS43Mi0uMzktLjgxQTIyLjA4LDIyLjA4LDAsMCwxLDE1LDQxLjU1bC0uMjUtLjg3LS44OC0uMTlMNi43MiwzOC45MmwwLTguMTMsNy41OS0xLjQ2Ljg1LS4xNi4yOC0uODEsMC0uMDhjLjItLjU3LjM5LTEuMS42My0xLjYycy40OS0xLC43Ny0xLjQ4bC4wNi0uMTEuNDEtLjc1LS40My0uNzRMMTMsMTYuOTJsNi4xMS01LjM2TDI1LDE1Ljg3bC43My41My44MS0uMzlhMjEuNzUsMjEuNzUsMCwwLDEsMy42OC0xLjM5bC44Ni0uMjUuMi0uODhMMzIuOCw2LjM1bDguMTMsMG0uMTMtMS41aDBsLTguMzMsMGgwYTEuMzgsMS4zOCwwLDAsMC0xLjM0LDEuMDZsLTEuNiw3LjI2YTIzLjg5LDIzLjg5LDAsMCwwLTMuOTMsMS40OWwtNi00LjM4YTEuMzgsMS4zOCwwLDAsMC0uOC0uMjUsMS4zOSwxLjM5LDAsMCwwLS45Mi4zNWwtNi4yNiw1LjQ5YTEuMzgsMS4zOCwwLDAsMC0uMjcsMS43Mmw0LDYuNzVjLS4zLjU2LS42MSwxLjExLS44OCwxLjcxcy0uNDgsMS4yLS43LDEuODFMNi4yOSwyOS4zNGExLjM3LDEuMzcsMCwwLDAtMS4xLDEuMzRsMCw4LjMzYTEuMzYsMS4zNiwwLDAsMCwxLjA2LDEuMzVMMTMuNTIsNDJBMjMuODksMjMuODksMCwwLDAsMTUsNDUuODhsLTQuMzksNmExLjM4LDEuMzgsMCwwLDAsLjEsMS43Mmw1LjQ5LDYuMjZhMS4zOSwxLjM5LDAsMCwwLDEsLjQ2LDEuNDIsMS40MiwwLDAsMCwuNjktLjE4bDYuNzktNGMuNTYuMzEsMS4xMS42MiwxLjcuODhzMS4xOS40OCwxLjc5LjY5bDEuNDksNy43NGExLjM3LDEuMzcsMCwwLDAsMS4zNSwxLjFsOC4zMiwwaDBhMS4zOCwxLjM4LDAsMCwwLDEuMzQtMS4wN2wxLjYtNy4yNmEyMy44OSwyMy44OSwwLDAsMCwzLjkzLTEuNDlsNiw0LjM4QTEuNDEsMS40MSwwLDAsMCw1NCw2MWw2LjI1LTUuNDlhMS4zOSwxLjM5LDAsMCwwLC4yOC0xLjcyTDU2LjUsNDdjLjMxLS41Ny42Mi0xLjEzLjg5LTEuNzNzLjQ4LTEuMTguNjktMS43OUw2NS43OSw0MmExLjM3LDEuMzcsMCwwLDAsMS4xLTEuMzRsMC04LjMzQTEuMzksMS4zOSwwLDAsMCw2NS44LDMxbC03LjI0LTEuNTlhMjMsMjMsMCwwLDAtMS40OS0zLjkzbDQuMzktNmExLjM4LDEuMzgsMCwwLDAtLjEtMS43MmwtNS40OS02LjI2YTEuMzksMS4zOSwwLDAsMC0xLS40NiwxLjQ1LDEuNDUsMCwwLDAtLjY5LjE4bC02Ljc2LDRjLS41Ni0uMzEtMS4xLS42NC0xLjcxLS45MXMtMS4yMi0uNDctMS44Mi0uNjhMNDIuMzgsNS45MmExLjM1LDEuMzUsMCwwLDAtLjg0LTFoMGExLjI4LDEuMjgsMCwwLDAtLjQ4LS4wOVoiIGNsYXNzPSJjbHMtMiIvPjxwYXRoIGQ9Ik0yMi4yNywyMS45MVY0OS40Nkg0OS44MlYyMS45MVptMTUsMjEuNDhjMCwyLjY4LTEuNTcsMy45LTMuODcsMy45YTQsNCwwLDAsMS0zLjg4LTIuMzZsMi4xMS0xLjI4Yy40MS43Mi43OCwxLjMzLDEuNjYsMS4zM3MxLjM5LS4zMywxLjM5LTEuNjJ2LTguOGgyLjU5Wm02LjEyLDMuOTFhNSw1LDAsMCwxLTQuNzItMi42NWwyLjEtMS4yMkEyLjg0LDIuODQsMCwwLDAsNDMuMzMsNDVjMS4wNywwLDEuNzUtLjU0LDEuNzUtMS4yOHMtLjctMS4yLTEuODgtMS43MWwtLjY1LS4yOGMtMS44Ni0uOC0zLjExLTEuOC0zLjExLTMuOSwwLTEuOTQsMS40OC0zLjQyLDMuOC0zLjQyYTMuODMsMy44MywwLDAsMSwzLjY4LDIuMDdsLTIsMS4yOWExLjc1LDEuNzUsMCwwLDAtMS42Ni0xLjFBMS4xMiwxLjEyLDAsMCwwLDQyLDM3Ljc3YzAsLjc4LjQ4LDEuMSwxLjU5LDEuNThsLjY1LjI3YzIuMTksMSwzLjQ0LDEuOTEsMy40NCw0LjA3QzQ3LjY4LDQ2LDQ1Ljg1LDQ3LjMsNDMuMzksNDcuM1oiIGNsYXNzPSJjbHMtMiIvPjwvZz48L2c+PC9zdmc+;" vertex="1" parent="1">
          <mxGeometry x="200" y="470" width="72" height="72" as="geometry" />
        </mxCell>
        <mxCell id="kadNdFoKMBePwxR4Qxik-32" value="" style="shape=image;editableCssRules=.*;verticalLabelPosition=bottom;labelBackgroundColor=default;verticalAlign=top;aspect=fixed;imageAspect=0;image=data:image/svg+xml,PHN2ZyB4bWxucz0iaHR0cDovL3d3dy53My5vcmcvMjAwMC9zdmciIHZpZXdCb3g9IjAgMCA3MiA3MiI+PGRlZnM+PHN0eWxlPi5jbHMtMXtmaWxsOiMzMzM7fS5jbHMtMntmaWxsOiNmZmY7fTwvc3R5bGU+PC9kZWZzPjxnIGRhdGEtbmFtZT0iTGF5ZXIgMiIgaWQ9IkxheWVyXzIiPjxnIGRhdGEtbmFtZT0iTGF5ZXIgNSIgaWQ9IkxheWVyXzUiPjxjaXJjbGUgcj0iMzYiIGN5PSIzNiIgY3g9IjM2IiBjbGFzcz0iY2xzLTEiLz48cGF0aCBkPSJNMzYuNDYsMjEuNjhjMTMsMCwyMC4yNS0yLjQzLDIwLjI1LTQuMTFzLTcuMjEtNC4xMi0yMC4yNS00LjEyUzE2LjIsMTUuODgsMTYuMiwxNy41NywyMy40MSwyMS42OCwzNi40NiwyMS42OFoiIGNsYXNzPSJjbHMtMiIvPjxwYXRoIGQ9Ik01Ni42Myw0My43VjM0LjU1QzUxLjc5LDM2LjU4LDQzLDM3LjMxLDM2LDM3LjMxYy04LjM5LDAtMTUuODItMS0yMC42Ny0yLjg0djkuMTFjMiwxLjM0LDksMy4yNywyMC42NywzLjI3aDBDNDcuODYsNDYuODUsNTUuNDcsNDQuODcsNTYuNjMsNDMuN1oiIGNsYXNzPSJjbHMtMiIvPjxwYXRoIGQ9Ik01Ni42Myw0Ny4zM0M1MS43OSw0OS4zNiw0Myw1MC4xLDM2LDUwLjFjLTguMzksMC0xNS44Mi0xLTIwLjY3LTIuODR2Ni42MWgwbC4yLjQ0Yy45MSwyLDcuNzIsNC4xMSwyMC44Nyw0LjExLDEyLjE5LDAsMTguODItMS43NiwyMC4yOC0zLjU1aDBaIiBjbGFzcz0iY2xzLTIiLz48cGF0aCBkPSJNNTYuNjMsMjEuODljLTQuMDgsMi0xMywyLjkyLTIwLjY3LDIuOTItOC44MiwwLTE2LjUyLTEuMTQtMjAuNjctM3Y5YzIsMS4zNCw5LDMuMjcsMjAuNjcsMy4yNywxMS45LDAsMTkuNTEtMiwyMC42Ny0zLjE1WiIgY2xhc3M9ImNscy0yIi8+PC9nPjwvZz48L3N2Zz4=;" vertex="1" parent="1">
          <mxGeometry x="960" y="470.0000000000002" width="72" height="72" as="geometry" />
        </mxCell>
        <mxCell id="kadNdFoKMBePwxR4Qxik-34" style="edgeStyle=orthogonalEdgeStyle;rounded=0;orthogonalLoop=1;jettySize=auto;html=1;entryX=0;entryY=0.5;entryDx=0;entryDy=0;" edge="1" parent="1" source="kadNdFoKMBePwxR4Qxik-33" target="kadNdFoKMBePwxR4Qxik-32">
          <mxGeometry relative="1" as="geometry" />
        </mxCell>
        <mxCell id="kadNdFoKMBePwxR4Qxik-33" value="SQL Writer" style="shape=image;verticalLabelPosition=bottom;labelBackgroundColor=default;verticalAlign=top;aspect=fixed;imageAspect=0;image=data:image/svg+xml,PHN2ZyB4bWxucz0iaHR0cDovL3d3dy53My5vcmcvMjAwMC9zdmciIHZpZXdCb3g9IjAgMCA3MiA3MiI+PGRlZnM+PHN0eWxlPi5jbHMtMXtmaWxsOiM0NmM3OTU7fS5jbHMtMntmaWxsOiNmZmY7fS5jbHMtM3tmaWxsOiMzMzM7fTwvc3R5bGU+PC9kZWZzPjxnIGRhdGEtbmFtZT0iTGF5ZXIgMiIgaWQ9IkxheWVyXzIiPjxnIGRhdGEtbmFtZT0iTGF5ZXIgNSIgaWQ9IkxheWVyXzUiPjxwYXRoIGQ9Ik00MS43NC40OEEzNiwzNiwwLDEsMCw3MS41Miw0MS43NCwzNS45NSwzNS45NSwwLDAsMCw0MS43NC40OFoiIGNsYXNzPSJjbHMtMSIvPjxwYXRoIGQ9Ik0yOC40OSwxMC4wOEgyMGEuNTQuNTQsMCwwLDAtLjU0LjU0djUuMzFIOS4yYTMzLjUsMzMuNSwwLDAsMC0yLjM0LDMuODFIMTkuNDd2NS4zMWEuNTQuNTQsMCwwLDAsLjU0LjU0aDguNDhhLjU0LjU0LDAsMCwwLC41My0uNTRWMTAuNjJBLjU0LjU0LDAsMCwwLDI4LjQ5LDEwLjA4WiIgY2xhc3M9ImNscy0yIi8+PHJlY3QgaGVpZ2h0PSIwLjAxIiB3aWR0aD0iNi4xMyIgeT0iMjMuMjgiIHg9IjM1LjY3IiBjbGFzcz0iY2xzLTMiLz48cGF0aCBkPSJNNTYuMjIsMTUuOTNWMTMuMjZhLjUzLjUzLDAsMCwwLS4zOS0uNTFMNDcsMTAuMWwtLjE1LDBINDIuMzRhLjU0LjU0LDAsMCwwLS41NC41NHYuNjlIMzUuMTRhLjU0LjU0LDAsMCwwLS41NC41NHYxMmEuNTQuNTQsMCwwLDAsLjU0LjU0SDQxLjh2LjY5YS41NC41NCwwLDAsMCwuNTQuNTRINDYuOGwuMTUsMCw4Ljg4LTIuNjVhLjU0LjU0LDAsMCwwLC4zOS0uNTFWMTkuNzRoOWEzMS42MywzMS42MywwLDAsMC0yLjM0LTMuODFabS0xNCw3LjM1SDM1LjY3VjEyLjM4SDQyLjJaIiBjbGFzcz0iY2xzLTIiLz48L2c+PC9nPjwvc3ZnPg==;" vertex="1" parent="1">
          <mxGeometry x="830" y="470" width="72" height="72" as="geometry" />
        </mxCell>
        <mxCell id="kadNdFoKMBePwxR4Qxik-36" value="" style="shape=image;verticalLabelPosition=bottom;labelBackgroundColor=default;verticalAlign=top;aspect=fixed;imageAspect=0;image=data:image/svg+xml,PHN2ZyB4bWxucz0iaHR0cDovL3d3dy53My5vcmcvMjAwMC9zdmciIHZpZXdCb3g9IjAgMCA3MiA3MiI+PGRlZnM+PHN0eWxlPi5jbHMtMXtmaWxsOiM0NmM3OTU7fS5jbHMtMntmaWxsOiNmZmY7fS5jbHMtM3tmaWxsOm5vbmU7fTwvc3R5bGU+PC9kZWZzPjxnIGRhdGEtbmFtZT0iTGF5ZXIgMiIgaWQ9IkxheWVyXzIiPjxnIGRhdGEtbmFtZT0iTGF5ZXIgNSIgaWQ9IkxheWVyXzUiPjxjaXJjbGUgcj0iMzYiIGN5PSIzNiIgY3g9IjM2IiBjbGFzcz0iY2xzLTEiLz48cGF0aCBkPSJNNDEuMTEsNS44NGgwbS0uMTMsMCwxLjQ1LDcuNi4xNi44Ni44Mi4yOC4yNy4wOWExNS4xMiwxNS4xMiwwLDAsMSwxLjQzLjU0Yy40Ni4yMS44OS40NSwxLjM0LjcxbC4yNS4xNC43NS40My43NS0uNDQsNi42Ni00LDUuMzcsNi4xMS00LjMyLDUuOTEtLjUzLjczLjM5LjgxYTIyLjA4LDIyLjA4LDAsMCwxLDEuMzksMy42OGwuMjUuODcuODguMTlMNjUuNDIsMzJsMCw4LjE0LTcuNTksMS40Ni0uODQuMTYtLjI5LjgxLDAsLjFjLS4xOS41NS0uMzgsMS4wNy0uNjEsMS41N3MtLjUsMS0uNzksMS41NGwtLjA1LjA3LS40MS43Ni40NC43M0w1OS4xOCw1NGwtNi4xMSw1LjM2TDQ3LjE4LDU1bC0uNzItLjU0LS44Mi40QTIxLjY1LDIxLjY1LDAsMCwxLDQyLDU2LjI3bC0uODcuMjQtLjIuODgtMS41Nyw3LjE1LTguMTMsMC0xLjQ3LTcuNjItLjE2LS44NC0uODEtLjI5LS4xMywwYy0uNTQtLjItMS4wNi0uMzgtMS41NS0uNnMtMS0uNDgtMS40Ny0uNzZsLS4xMi0uMDctLjc1LS40Mi0uNzQuNDRMMTcuMzIsNTguMywxMiw1Mi4xOWw0LjMyLTUuOTEuNTMtLjczLS4zOS0uODFBMjIuMDgsMjIuMDgsMCwwLDEsMTUsNDEuMDZsLS4yNS0uODdMMTMuODksNDAsNi43NiwzOC40NGwwLTguMTMsNy41OS0xLjQ3Ljg0LS4xNi4yOS0uODEsMC0uMDhjLjItLjU2LjM5LTEuMS42Mi0xLjYxcy41LTEsLjc4LTEuNDlsLjA1LS4xLjQyLS43NS0uNDQtLjc0TDEzLDE2LjQ0bDYuMTEtNS4zNiw1LjksNC4zLjcyLjU0LjgxLS40YTIyLjA4LDIyLjA4LDAsMCwxLDMuNjgtMS4zOWwuODctLjI0LjE5LS44OCwxLjU4LTcuMTUsOC4xMywwbS4xMy0xLjVoMGwtOC4zMywwaDBhMS4zNywxLjM3LDAsMCwwLTEuMzQsMS4wN2wtMS42LDcuMjZhMjMsMjMsMCwwLDAtMy45MywxLjQ4bC02LTQuMzdhMS4zNywxLjM3LDAsMCwwLTEuNzIuMDlsLTYuMjYsNS40OWExLjM5LDEuMzksMCwwLDAtLjI4LDEuNzJsNCw2Ljc2Yy0uMzEuNTYtLjYyLDEuMTEtLjg4LDEuN3MtLjQ5LDEuMi0uNywxLjgxTDYuMzQsMjguODVhMS4zOCwxLjM4LDAsMCwwLTEuMSwxLjM1bDAsOC4zMmExLjM5LDEuMzksMCwwLDAsMS4wNywxLjM2bDcuMjQsMS41OWEyMy43OCwyMy43OCwwLDAsMCwxLjQ5LDMuOTJsLTQuMzksNmExLjM5LDEuMzksMCwwLDAsLjEsMS43Mmw1LjQ5LDYuMjVhMS4zNSwxLjM1LDAsMCwwLDEsLjQ2LDEuMzIsMS4zMiwwLDAsMCwuNjktLjE4bDYuNzgtNGMuNTYuMzEsMS4xMS42MiwxLjcxLjg5czEuMTguNDcsMS43OS42OUwyOS43NSw2NWExLjM3LDEuMzcsMCwwLDAsMS4zNCwxLjFsOC4zMywwaDBBMS4zNywxLjM3LDAsMCwwLDQwLjc3LDY1bDEuNi03LjI2YTIzLDIzLDAsMCwwLDMuOTMtMS40OGw2LDQuMzdBMS4zNywxLjM3LDAsMCwwLDU0LDYwLjUxTDYwLjI2LDU1YTEuMzksMS4zOSwwLDAsMCwuMjgtMS43MWwtNC02Ljc2Yy4zMS0uNTcuNjItMS4xMi44OS0xLjcycy40OC0xLjE5LjY5LTEuNzlsNy43MS0xLjQ4YTEuMzgsMS4zOCwwLDAsMCwxLjEtMS4zNWwwLTguMzJhMS4zOSwxLjM5LDAsMCwwLTEuMDctMS4zNmwtNy4yNC0xLjU5QTI0LjEzLDI0LjEzLDAsMCwwLDU3LjEyLDI1bDQuMzktNmExLjM5LDEuMzksMCwwLDAtLjEtMS43Mkw1NS45MiwxMWExLjM1LDEuMzUsMCwwLDAtMS0uNDYsMS40MiwxLjQyLDAsMCwwLS42OS4xOGwtNi43Niw0Yy0uNTYtLjMyLTEuMS0uNjQtMS43Mi0uOTJzLTEuMjEtLjQ3LTEuODItLjY4TDQyLjQzLDUuNDRhMS40LDEuNCwwLDAsMC0uODQtMWgwYTEuNTYsMS41NiwwLDAsMC0uNDgtLjA4WiIgY2xhc3M9ImNscy0yIi8+PHBhdGggZD0iTTM2LjA5LDQwLjc0YTUuNTYsNS41NiwwLDEsMSw0Ljc0LTguNDZsNC44Mi0yLjc2YTExLjExLDExLjExLDAsMSwwLC4xLDExLjE1TDQwLjg4LDM4QTUuNTUsNS41NSwwLDAsMSwzNi4wOSw0MC43NFoiIGNsYXNzPSJjbHMtMyIvPjxyZWN0IGhlaWdodD0iMS4zIiB3aWR0aD0iMS4zIiB5PSIzNC41MyIgeD0iNDUuMjIiIGNsYXNzPSJjbHMtMiIvPjxwYXRoIGQ9Ik01MS4xNywyOGEzLjM3LDMuMzcsMCwwLDAtLjA3LS44MiwxLjE5LDEuMTksMCwwLDAtLjI5LS41NGwtLjA1LS4wNmgwYTEuNjgsMS42OCwwLDAsMC0uNTMtLjQ2TDM3LDE4Ljc0YTIsMiwwLDAsMC0uNC0uMTYsMiwyLDAsMCwwLS40OS0uMDcsMS44NSwxLjg1LDAsMCwwLS45Mi4yM0wyMS44OCwyNi4xOEExLjY4LDEuNjgsMCwwLDAsMjEsMjcuNjR2MTVhMS42OSwxLjY5LDAsMCwwLC44NywxLjQ3bDEzLjM0LDcuNDhhMS43NCwxLjc0LDAsMCwwLDEuNzQsMEw1MC4zLDQ0LjE0YTEuNywxLjcsMCwwLDAsLjg3LTEuNDd2LS4wNUM1MS4xNCwzOS42MSw1MS4xNywzMSw1MS4xNywyOFpNMzYuMDksNDYuMjlhMTEuMTEsMTEuMTEsMCwxLDEsOS41Ni0xNi43N2wtNC44MiwyLjc2QTUuNTYsNS41NiwwLDEsMCw0MC44OCwzOGw0Ljg3LDIuNjdBMTEuMDksMTEuMDksMCwwLDEsMzYuMDksNDYuMjlaTTQ5LjE4LDM0LjUzSDQ3Ljg1djEuM2gxLjMzdjEuMzRINDcuODV2MS4zN0g0Ni41MVYzNy4xN0g0NS4yMnYxLjM3SDQzLjg4VjM3LjE3SDQyLjQ3VjM1LjgzaDEuNDF2LTEuM0g0Mi40N1YzMy4yaDEuNDFWMzEuODNoMS4zNFYzMy4yaDEuMjlWMzEuODNoMS4zNFYzMy4yaDEuMzNaIiBjbGFzcz0iY2xzLTIiLz48L2c+PC9nPjwvc3ZnPg==;" vertex="1" parent="1">
          <mxGeometry x="360" y="220" width="72" height="72" as="geometry" />
        </mxCell>
        <mxCell id="kadNdFoKMBePwxR4Qxik-38" style="edgeStyle=orthogonalEdgeStyle;rounded=0;orthogonalLoop=1;jettySize=auto;html=1;" edge="1" parent="1" source="kadNdFoKMBePwxR4Qxik-37" target="kadNdFoKMBePwxR4Qxik-36">
          <mxGeometry relative="1" as="geometry" />
        </mxCell>
        <mxCell id="kadNdFoKMBePwxR4Qxik-37" value="" style="shape=image;editableCssRules=.*;verticalLabelPosition=bottom;labelBackgroundColor=default;verticalAlign=top;aspect=fixed;imageAspect=0;image=data:image/svg+xml,PHN2ZyB4bWxucz0iaHR0cDovL3d3dy53My5vcmcvMjAwMC9zdmciIHZpZXdCb3g9IjAgMCA3MiA3MiI+PGRlZnM+PHN0eWxlPi5jbHMtMXtmaWxsOiMzMzM7fS5jbHMtMntmaWxsOm5vbmU7fS5jbHMtM3tmaWxsOiNmZmY7fTwvc3R5bGU+PC9kZWZzPjxnIGRhdGEtbmFtZT0iTGF5ZXIgMiIgaWQ9IkxheWVyXzIiPjxnIGRhdGEtbmFtZT0iTGF5ZXIgNSIgaWQ9IkxheWVyXzUiPjxjaXJjbGUgcj0iMzYiIGN5PSIzNiIgY3g9IjM2IiBjbGFzcz0iY2xzLTEiLz48cmVjdCBoZWlnaHQ9IjM0LjEiIHdpZHRoPSI1MC44MiIgeT0iMTguOTUiIHg9IjEwLjU5IiBjbGFzcz0iY2xzLTIiLz48cGF0aCBkPSJNNjAuOTIsMTQuNzdIMTEuMDhhMS42MywxLjYzLDAsMCwwLTEuNzYsMS4zMlY1NS45MWMwLC43Ny43NywxLjMyLDEuNzYsMS4zMkg2MC45MmExLjYyLDEuNjIsMCwwLDAsMS43NS0xLjMyVjE2LjJBMS42MSwxLjYxLDAsMCwwLDYwLjkyLDE0Ljc3Wk0yNS4wNSwxNi40NkExLjU3LDEuNTcsMCwxLDEsMjMuNDgsMTgsMS41NywxLjU3LDAsMCwxLDI1LjA1LDE2LjQ2Wm0tNS44LDBBMS41NywxLjU3LDAsMSwxLDE3LjY4LDE4LDEuNTcsMS41NywwLDAsMSwxOS4yNSwxNi40NlptLTUuNDYsMEExLjU3LDEuNTcsMCwxLDEsMTIuMjIsMTgsMS41NywxLjU3LDAsMCwxLDEzLjc5LDE2LjQ2Wk02MS40Nyw1NS44SDEwLjY1VjIxLjdINjEuNDdaIiBjbGFzcz0iY2xzLTMiLz48L2c+PC9nPjwvc3ZnPg==;" vertex="1" parent="1">
          <mxGeometry x="200" y="220" width="72" height="72" as="geometry" />
        </mxCell>
        <mxCell id="kadNdFoKMBePwxR4Qxik-39" value="acmebank/insurance/claim/*/*" style="edgeStyle=orthogonalEdgeStyle;rounded=0;orthogonalLoop=1;jettySize=auto;html=1;entryX=-0.005;entryY=0.132;entryDx=0;entryDy=0;entryPerimeter=0;" edge="1" parent="1" source="kadNdFoKMBePwxR4Qxik-36" target="V8S6c6sAEREi9b41OBRZ-2">
          <mxGeometry relative="1" as="geometry" />
        </mxCell>
      </root>
    </mxGraphModel>
  </diagram>
</mxfile>
